<svg xmlns="http://www.w3.org/2000/svg" xmlns:xlink="http://www.w3.org/1999/xlink" viewBox="345 -205 750 471"><style>.st0{fill:url(#rectangle_1_);} .st1{fill:#FEFEFE;} .st2{fill:#EA008A;} .st3{fill:#005DA8;} .st4{fill:#A4017D;} .st5{fill:#A5027D;} .st6{fill:#A5017D;} .st7{fill:#FEFCFD;} .st8{fill:#EA018B;} .st9{fill:#A5037E;} .st10{fill:#A5027E;} .st11{fill:#A6037E;} .st12{fill:#A6047F;} .st13{fill:#FDFAFC;} .st14{fill:#A70580;} .st15{fill:#AA0480;} .st16{fill:#A7057F;} .st17{fill:#FDFEFE;} .st18{fill:#FDFDFE;} .st19{fill:#A5047F;} .st20{fill:#A70680;} .st21{fill:#A60881;} .st22{fill:#B0258F;}</style><g id="diners_2_"><linearGradient id="rectangle_1_" gradientUnits="userSpaceOnUse" x1="720.94" y1="-196.913" x2="718.94" y2="287.087"><stop offset="0" stop-color="#FFDE00"/><stop offset="1" stop-color="#E0BF00"/></linearGradient><path id="rectangle_2_" class="st0" d="M385-205h670c22.1 0 40 17.9 40 40v391c0 22.1-17.9 40-40 40H385c-22.1 0-40-17.9-40-40v-391c0-22.1 17.9-40 40-40z"/></g><title>diners</title><image width="300" height="200" xlink:href="Logo-Argencard.jpg" transform="translate(1177 -562)" overflow="visible"/><path class="st1" d="M575.3-29.3c-4.1-15-8-29.5-12-44.1-3.9-14.1-2.5-16.9 11.6-20.5 73.5-18.8 146.9-37.5 220.4-56.2 2.6-.7 5.1-1.5 7.7-1.9 8-1.3 12.5 1.4 14.6 9.2 3.5 13 6.7 26.1 9.9 39.2 2 8.1 2 8 9.7 5 19.5-7.6 39.5-11.8 60.5-7.7 23.9 4.6 40.8 24 40.5 48.2-.2 12.8-5.5 24.3-14.5 33.7-1.4 1.4-2.8 2.8-4.2 4.3-.1.1-.1.3-.3 1.2 8.4-1.9 16.5-3.7 24.7-5.5 1.5-.3 2.9-.7 4.4-.8 4.5-.1 6.5 2.6 4.9 6.8-.7 1.8-1.9 3.5-3.1 5.1l-165.9 219c-6.5 8.6-10.7 9.5-21.6 4.9-68.8-29.5-137.2-59.7-205.5-90.4-15.8-7.1-31.6-14.1-47.4-21.1-2.2-1-5-1.4-5.3-4.6-.3-3.2 2.2-4.2 4.5-5.2 3-1.2 1.4-3.3.9-5-6.5-25.3-12.9-50.6-19.4-75.9-1.2-4.7-2.2-9.4-3.7-14-1.3-3.7 0-4.7 3.4-5.5 20.1-4.6 40.2-9.2 60.2-14.1 8.1-1.9 16.2-3.7 25-4.1z"/><path class="st2" d="M519.8 93.8c8.4-2.2 15.7-4.1 23-6 20.6-5.3 41.2-10.6 61.9-15.9 2.4-.6 4.7-.9 4.2-4.3-.4-2.6 1.6-2.9 3.3-3.4 6.7-1.8 13.5-3.7 20.2-5.4 6-1.5 9.7-5 10.1-11.3.1-2.3 1.1-3.1 3.1-3.6 7.4-1.9 14.8-4 22.1-6 2.1-.6 3.7-.6 4.9 1.8 2.3 4.7 6.5 6.3 11.3 5.2 11.9-2.6 23.7-5.4 35.4-8.4 1.8-.5 3.6-2 4.7-3.5 2.1-3.1 4.6-3.6 8.1-3 19.9 3.1 38-1.7 54.3-13.3 2.1-1.5 3.7-3 6.4-.6 1.7 1.5 4.1.8 6.2.3 6.4-1.7 12.9-3.3 19.3-5 8.4-2.2 9.3-3.5 8.4-12.1-.1-.9 0-1.9 0-3.2 5.9 3.2 11.9 5.2 18.3 5.3 3 0 2.9 2.4 3.2 4.2.6 3 1.6 3.6 4.7 2.8 27.6-7.4 55.3-14.5 83-21.8 1.3-.3 2.5-.9 4-.4.2 1.9-1.3 2.9-2.2 4.1C883.6 61.5 829.5 132.7 775.5 204c-2 2.7-3.5 2.9-6.5 1.6C687.2 169 605.3 132.5 523.5 96c-.8-.6-1.7-1.2-3.7-2.2z"/><path class="st3" d="M610.1-2.2c1.5-7.6 3.6-15.1 4.4-22.7.7-7.3 3.7-10.6 11-11.7 8.3-1.3 16.5-3.9 24.6-6.2 3.8-1.1 6.2-.2 8.8 2.9 10.8 12.4 22 24.5 33.8 37.6-1.2-8.2-1.5-15.2-.5-22.2 1.9-13.4 8.8-23.6 20.2-30.5 20.6-12.5 42.9-17.8 66.9-13.9 9.6 1.6 17.4 6.4 22.9 14.6 1.7 2.6 2.3 4.1-1.7 5-9.5 2.3-19 5-28.4 7.6-1.5.4-2.5.7-4-.7-7.5-6.7-18.9-7.5-27.9-2.4-8.4 4.8-12.4 14.1-10.5 24.5C732.3-6.2 742.1 1 756.3-1.4c6.7-1.1 13.6-2.3 17.8-8.8.9-1.4 2.3-3.2 1.4-4.6-1-1.5-3-.2-4.6 0-3.9.7-8.7 3.7-11.3 1.8-2.5-1.8-2.5-7.2-3.5-11-1.7-6.5-1.7-6.5 5.1-8.1 14.1-3.3 28.2-6.6 42.3-9.8 2.2-.5 3.4-.8 3.4-3.7 0-19.4 8.6-33.9 26-42.7 20.6-10.3 42.2-15.4 65.2-9.9 18 4.3 28.6 16.1 30.8 34.3 2.2 17.7-4.1 32.7-19.3 42.6-14.1 9.3-30.6 12.5-47 15.1-8.3 1.4-16.6 1.6-24.9.2-7.8-1.4-14.5-4.8-20-10.4-1-1-1.5-2.7-3.7-2.6 1.7 6.6 3.2 13.1 5 19.6.5 1.9.7 3-1.7 3.5-6.8 1.6-13.5 3.4-20.2 5.3-2.1.6-2.6-.4-3.1-2-.4-1.4-.2-3-1.5-4.1-16.9 18.4-49.5 24.5-81.3 14.5 3.4 3.9 6 7.1 9.2 10.7-10.8 2.8-21.1 5.5-31.5 8.2-1.1.3-2.3.4-3.4.9-4.1 1.8-7.3 1-9.6-3-1.6-2.9-3.9-3.4-7.1-2.4-8.9 2.7-17.9 5.2-27 7.3-3.8.9-5.5 2.5-5.2 6.3.3 3.1-1 4.6-4.3 5.4-11.2 2.6-22.2 5.6-34.2 8.7 2.3-12.3 4.5-23.9 6.8-35.6-.7-.1-1.2-.2-1.3-.1-9.3 11.8-23.4 13.7-36.6 17.6-4 1.2-8 2.2-12.1 3.1-2.9.6-3.8 1.7-3 4.8 1.7 5.7 2.9 11.6 4.5 17.4.6 2.3.4 3.5-2.4 4.2-10.7 2.5-21.3 5.1-31.9 8.1-3.6 1-3.4-1.1-3.9-3.1-5.2-20.3-10.4-40.6-15.5-60.9-1.3-5-2.5-10-3.9-15-.6-2.3-.5-3.7 2.2-4.3 20.4-4.6 40.4-11.2 61.1-14.6 8.9-1.5 17.9-1.8 26.8.1 9.6 1.9 17 6.6 21.2 16.2z"/><path class="st2" d="M683.3-24.3c-7-7.7-13.5-14.9-19.8-22.1-3.4-3.9-7.2-5.3-12.4-3.8-11.2 3.2-22.5 6.1-33.7 9.1-4.5 1.2-7.3 3.6-7.9 8.4-.4 3.5-1.3 6.9-1.9 10.3-.4 2.2-1.2 2.9-3.2 1.4-5.1-3.6-11-5.4-17-6.8-2.6-.6-3.5-1.8-4.1-4.2-4.1-15.8-8.2-31.6-12.6-47.3-1-3.4-.1-4.1 3-4.9 70.2-18 140.5-36 210.7-54.1 6.9-1.8 13.9-3.5 20.7-5.5 2.7-.8 3.9-.1 4.6 2.6 3.9 15.5 8 30.9 12 46.4.7 2.8.4 5.1-2.3 6.9-7.1 4.7-12.2 11.3-16 18.8-.8 1.5-1.2 3.1-3.6 1.5-17.4-12.1-36.6-11.5-56.2-7.3-8.1 1.8-16.2 4-23.9 7.2-18.3 7.7-30.9 20.5-35.3 40.3-.3.8-.6 1.6-1.1 3.1z"/><path class="st1" d="M715.8 125.9c-2.4-.8-2.8-3.3-4-5-.9-.6-1-1.7-1.8-2.8-3.1 4.8-5.9 9.5-10.2 12.9-2.3 1.8-4.6 4.2-7.9 1.8-3.6-2.2-4.6-5.4-3.4-9.4 4.2-14.6 12.2-26.7 23.8-36.5 4.4-3.8 9.4-2.6 14.2-2.6 1.7 0 3.5 1.2 3.3 3.6-.3 5.9-4.4 10.3-6 15.6-.5 1.7-1.7 3.2-2 5.5 2.2-.7 3.1-3.1 5.1-3.6 4.1-3.7 7.5-7.8 10.3-12.5 6.1-10.2 14.3-18.2 25.8-22.1 5.3-1.8 7.2-.5 8.5 4.8 1 5.9-3.5 8.4-6.9 11.6-1.6 1.5-3.6 2.3-5.7 2.8-1.3.2-2.6.2-3.8-.4-1.8-1.6-.6-3 .3-4.3 1.3-1.7 2.7-3.3 3.7-5.2-8.1 5.7-13 13.7-15.3 23.2-.4 1.7-1 3.8 2.1 3.8 4.8-1.2 8.6-4.1 12.1-7.4 4.7-4.4 8.7-9.5 13.9-13.3 4.4-3.9 7.7-8.6 9.8-14.1 1.5-4 4.6-5.8 8.7-6.2 2.5-.2 2.8 1 2.4 3-.5 4.4-3.4 7.8-4.8 11.9-1.1 3.1-2.3 6.2-2.7 9.5-.2 1.6-1 3.7 1.5 4.6 7.4-6 13.4-13.3 19.9-20.2 1.3-1.4 1.5-3.3 2-5 6.2-20.7 17.5-37.9 34.4-51.4 5.3-4.3 9.2-2.9 10.1 3.4 1 3-.7 5.5-1.9 7.9-6.9 13.5-15.4 26-25.3 37.4-2.4 2.8-4.9 5.5-6.8 8.6-1.9 3.1-3.5 6.5-.3 10 4.6-2 7.8-5.6 11-9.1 5.7-6.1 11.1-12.4 16.7-18.5.8-.9 1.4-2.8 2.9-2.2 2.3 1 .5 2.8.3 4.3.2 1.2-.2 2.3-.9 3.3-6.8 10.2-13.3 20.6-22.3 29-3.8 3.6-8.1 6.4-13.7 3.5-2.2-1.5-3.5-3.7-5-5.8-1.2-.7-2-2.6-3.7-.1-3.2 4.6-6.6 9.1-11 12.7-3.6 2.9-7.3 5.9-12.5 3.7-5.6-2-6.8-6.4-6.2-11.7v-.5c-.2-.1-.4-.1-.6-.2-6.5 10.2-14.9 18.2-25.6 23.7-3.1 1.6-6.2 2.4-9.5.4-1.4-1.4-2.8-2.7-4.2-4.1-1.8-1.8-3.1-2.2-4.8.5-2.3 3.5-4.8 6.8-7.9 9.6-1.8 1-3.4 3-6.1 1.6zM674.6 88.9c5.4-1 10.6-3.3 16.3-3.1 3.4.1 6.1 1.1 7.8 4.1.3 2.7-1.9 3.3-3.6 4-9 3.5-17.6 8-26.5 11.6-6.1 2.5-10.2 6.4-12.2 12.9-2.2 7.1-5.4 13.9-6.8 21.4-.7 3.6-2.1 3.9-6.8 2.1-2.8-1.3-3.5-3.5-3.5-6.4.1-6.6 1.5-12.9 4.4-18.7 1.5-3 2-5.2-1.1-7.6-2.2-1.7-2.6-4.5.5-5.5 12.3-4 16-15.5 22.5-24.6-.4-1.7.9-2.7 1.8-4.2-8.7 3.8-17.2 7.5-26.1 10.1-2.5.7-5.1 2.1-7.6 0-5.5-3.7-5.7-5.7-.6-9.7 2.4-2 5-4.2 7.9-5.2 22.3-7.4 42.9-20.3 67-22.2 6.2-.5 12.6-.4 17.1 5.3-1 3-3.9 2.9-6.1 3.6-11.8 3.6-23.5 7.5-35 11.7-2.6.9-4.1 2.1-4.6 5.1-.5 3.5-3.1 6.2-4.9 9.2-1.2 2.1-3 4-3.7 6.4 1.3.2 2.5-.8 3.8-.3z"/><path class="st4" d="M642.7 141.7c3.7 1 5.4.5 6.1-4.2 1.4-9.2 5.4-17.7 9.1-26.2 1.2-2.9 4.2-4.1 6.9-5.4 9.8-4.4 19.7-8.7 29.5-13.2 1.6-.7 3.7-.7 4.4-2.9 4 3.4 4 3.7-.4 5.7-10.6 4.8-21.2 9.6-31.7 14.3-3.5 1.6-5.8 4.1-7 7.9-2.9 8.6-7.4 16.7-7.9 26-.1 1.5-.9 2.3-2.3 1.7-2.4-.8-5.5-.7-6.7-3.7zM818.7 85.4c-3.1.5-2.9-1.9-3.1-3.8-.4-4.2 2-7.2 4.6-10.1 11.3-12.7 21.5-26.1 29.2-41.3 1.4-2.8 2.5-5.8 3.7-8.7.6-.3.7-1.8 1.9-.9 1.4 1 1.5 2.2 1 3.9-2.2 7.4-6.1 14-10.1 20.5-6.8 10.9-14.6 21-23.3 30.4-2.6 2.9-4.3 6.1-3.9 10z"/><path class="st5" d="M674.6 88.9c-2.1.9-4.2 1.9-7.6 3.4 3.9-6.4 7.2-11.6 10.4-16.9.9-1.5 2.3-2.7 1.1-4.9-1.5-2.6 1.6-2 2.4-2.4 13.5-5.4 27.5-9.7 41.4-14.1.9-.3 1.8-.7 2.7-1.1.9.9 3 .8 2.9 2.4 0 2-2.2 1.7-3.5 2.1-12.4 4.2-24.8 8.2-37.2 12.5-2.5.9-6.6.7-5.2 5.7.3 1.3-1.8 3.4-2.9 5-1.6 2.8-3.5 5.3-4.5 8.3z"/><path class="st6" d="M812.8 95.7c6 .9 10.6-1.7 14.6-5.9 8.6-9.1 15.2-19.7 22.3-29.9 1.2-.2 1.8-2.4 3.3-1 1.2 1.2.5 2.5-.2 3.6-7.5 11.6-14.8 23.5-25.2 32.9-5.2 4.7-10.8 4.6-14.8.3z"/><path class="st7" d="M721.6 79.4c-3.1-.1-3.6-1.9-1.9-3.9 4.6-5.7 8.4-11.8 10.7-18.9 1.1-3.5 4.8-2.5 8.2 2.2 1.3 1.3 1.3 2.9.9 4.6-1.4 6.2-11.4 15.1-17.9 16z"/><path class="st8" d="M771.8 86.2c-7.3 9-14.5 18.1-26.1 21.9-2.4-4.9.6-8.9 2.7-12.8 1.4-2.7 2.2-6.5 6.4-6.6 1.3.1 2.6.1 3.9.2 2 2.6 4 .9 6.1.1 2.5-1 3.9-3.9 6.9-4 0 .3.1.8.1 1.2z"/><path class="st9" d="M738.7 117.9c6.3.9 11.2-2.1 15.9-5.6 5.8-4.3 10.6-9.4 15.3-14.8 1.1-1.3 1.9-3.2 3.8-3.6.7 4.8-1.5 8.2-4.8 11.4-4.9 4.8-9.7 9.6-15.5 13.2-5.8 3.5-11.3 3.2-14.7-.6z"/><path class="st10" d="M780.6 106.1c5.3.1 9.5-2.1 13.2-5.9 4.4-4.5 8.1-9.6 12.4-15 .6 1.8 1.1 3.3 1.5 4.7-3.6 5.4-7.6 10.4-12.4 14.8-3.2 3-6.8 4.6-11.3 4.2-1.8-.2-3.1-.7-3.4-2.8z"/><path class="st9" d="M633.7 84.8c8.8-.5 16.4-4.6 24.4-7.6 3.7-1.4 7.2-3 11.6-3.8-1.4 1.8-2.8 3.6-4.1 5.4-7.8 2.8-15.6 5.6-23.4 8.3-3.4 1.2-6.6 1.6-8.5-2.3z"/><path class="st11" d="M721.6 79.4c5-2.7 9.7-5.7 13.4-10.1 2.5-3 4.3-6.3 3.5-10.4 4.1 2.9 3.9 6.6 1.8 10.5-3.3 6.2-9.1 9.5-15 12.7-2.7 1.4-3.4-.4-3.7-2.7z"/><path class="st12" d="M786.7 94.8c-2.6 2.1-3.4.9-3.1-1.8.9-8.9 4.7-16.6 9.1-24.1 3.7-.2 3.8 1.4 2.3 4.2-3.5 6.9-7.1 13.9-8.3 21.7z"/><path class="st9" d="M691.8 132.7c3.7.8 6.3-1.2 8.6-3.7 3.9-4.2 6.9-9.1 9.9-14.2 1.5 2.1 1.3 4.1 1.5 6-2.7 3.7-5.3 7.5-8.2 11.2-3.9 5-7.8 5.1-11.8.7z"/><path class="st13" d="M791.8 58.1c-3.2-.9-2.9-3.3-2.2-5.6 1.3-4 3.7-7.2 7.7-8.4 2.3-.7 3.3 1.6 4.1 3.5-.6 6.6-4.1 10.5-9.6 10.5z"/><path class="st14" d="M726.8 105.3c-1.6 2.8-3.9 4.8-7.4 7.3 2.4-9.5 6.6-17.1 10.3-24.8 3.8.2 3.2 2.3 2.1 4.7-1.8 4.2-4.1 8.2-5 12.8z"/><path class="st9" d="M715.8 125.9c4.4-.7 6.5-4.3 9-7.3 2.7-3.1 5.1-6.4 8.1-10.2.7 2.2 1.2 3.8 1.7 5.5-4.2 3.7-6.7 8.9-10.9 12.7-3.2 2.7-5.6 3.4-7.9-.7z"/><path class="st15" d="M771.7 84.9c-2.6 3.2-6 5.5-9.9 6.7-1.7.5-4.9 1.4-3.1-2.7 6.1-2.7 10.9-6.7 12.7-13.5 2.5-.5 3.6.4 3 2.8-.6 2.3-1.8 4.5-2.7 6.7z"/><path class="st16" d="M791.8 58.1c5.4-1.5 7.5-6 9.6-10.5.2-.1.3-.2.5-.2 2.4.9 2.6 2.7 1.8 4.7-1.5 3.7-3.5 7.1-7.5 8.6-2.2.9-3.6-.5-4.4-2.6z"/><path class="st1" d="M890.8-52.5c0 12.7-10.4 22-24.5 21.9-12.9-.1-21.8-10.2-21.8-24.7 0-12.6 9.6-21.2 23.8-21.2 13-.2 22.5 10 22.5 24z"/><path class="st17" d="M562.3 2.9c5.5-.1 9 2.2 10 6.3.9 3.8-1.7 8.1-6.7 9.8-5.6 1.9-11.5 3.2-17.2 4.7-1.5.4-2.6.3-2.9-1.5-.1-.5-.4-.9-.5-1.4-.7-4.5-5-11-2.5-12.9 4.6-3.3 11.5-3.5 17.4-4.9.7-.2 1.5-.1 2.4-.1z"/><path class="st18" d="M643.1-12c6.7 8.6 12.6 16.2 18.9 24.4-7.6 1.8-14.6 3.5-22.4 5.4 1.2-9.7 2.3-19.1 3.5-29.8z"/><path class="st19" d="M754.8 88.7c-5.5 5.3-8.5 11.8-9.1 19.4-4.3 1.9-3.7-1.7-3.4-3.6 2.2-11.8 8.2-21.1 19.1-27.8 0 5.7-5.9 7.4-6.6 12z"/><path class="st20" d="M718.2 92.2c-5.9 10-11.8 20-20 28.4 2.9-12.2 9.1-21.9 20-28.4z"/><path class="st21" d="M840.8 31.1c-6 13.4-14.7 26.2-19.1 27.8 4.9-10.6 10.6-20.3 17.9-29 1-.3 1.6 0 1.2 1.2z"/><path class="st22" d="M840.8 31.1c-.4-.4-.8-.8-1.2-1.3.5-1 1.2-2.6 2.2-1.7 1.1.8-.1 2.1-1 3z"/></svg> 
