<svg xmlns="http://www.w3.org/2000/svg" xmlns:xlink="http://www.w3.org/1999/xlink" viewBox="345 -205 750 471"><style>.st0{fill:url(#rectangle_1_);} .st1{fill:#C24626;} .st2{fill:#262D72;} .st3{fill:none;stroke:#211915;} .st4{fill:none;}</style><g id="diners_2_"><linearGradient id="rectangle_1_" gradientUnits="userSpaceOnUse" x1="720.94" y1="-196.913" x2="718.94" y2="287.087"><stop offset="0" stop-color="#F2F2F2"/><stop offset="1" stop-color="#CCC"/></linearGradient><path id="rectangle_2_" class="st0" d="M385-205h670c22.1 0 40 17.9 40 40v391c0 22.1-17.9 40-40 40H385c-22.1 0-40-17.9-40-40v-391c0-22.1 17.9-40 40-40z"/></g><title>diners</title><image width="300" height="200" xlink:href="Logo-Argencard.jpg" transform="translate(1177 -562)" overflow="visible"/><ellipse transform="rotate(-23 824.154 -56.632)" class="st1" cx="824.1" cy="-56.6" rx="43.2" ry="30.3"/><path class="st2" d="M759.6 32.5l-61.3.3-6.3 15.9h6.8s3.8 1.3 2.3 5.3l-23.4 58.5h23.2l9.1-21.9h28s13.6-.3 21.2-13.4l12.6-31.3c-.1 0 3.9-10.6-12.2-13.4zM745.2 55l-6.6 14.9s-1.3 4-7.6 4l-14.9-.5 9.6-24h16.1c.1 0 4.6 0 3.4 5.6zM838.2 65.1l13.1-32.3h-48.4s-19.4 2-24.7 14.6l-10.3 24.7s-5 16.1 8.8 17.4h62.5l6.6-15.6s-11.9 1.5-7.6-8.8zm-26 8.8h-16.9s-3.5-.5-1.8-6.6c0 0 5.3-18.2 12.9-18.7l14.9.5-9.1 24.8z"/><path class="st2" d="M922.1 49.6l-8.6-9.2c-3.6-3.3.3-6.5.3-6.5l4.2-3-10.8-11.5c-32.3 16.2-58.6 34.2-58.6 34.2-5 6.1-.3 13.1-.3 13.1l20.4 21.2c2 5.8-3.9 7-3.9 7l-14.5-.2-7.2 15.7c3.7 0 25.9-.3 25.9-.3 20.1-10.1 25.7-18.2 25.7-18.2 3.6-5-.2-10.1-.2-10.1-2.7-3.3 1.7-4.7 1.7-4.7 16.7-9.2 24.5-16.7 24.5-16.7 4.3-5.2 1.4-10.8 1.4-10.8zM897.7 58l-17.5 11.1c-2.7 1.4-4.2-.5-4.2-.5l-7-8c-1.9-2.3 1.1-5.8 1.1-5.8l13.4-8.6c5.9-2.5 8.3.2 8.3.2l5.9 5.8c2.1 3.2 0 5.8 0 5.8zM1008.7 51.6s-17.5-17.3-21.7-19c0 0-9.4-4.2-18.4.2 0 0-27.4 13.7-40.2 22.3 0 0-7.9 6.1-5 13.9 0 0 16.2 18.9 21.2 21.2 0 0 6.2 4.4 17.2 1.1 0 0 31.2-12 46.8-26.8 0-.2 4.7-5.5.1-12.9zm-25.8 11.5c-.2.8-15.8 9-15.8 9-5 2.7-8.6.3-8.6.3C956 71.1 951 65 951 65c-1.9-2 .2-5 .2-5 3.1-3.1 16.4-9.8 16.4-9.8 3.1-2 8.1.5 8.1.5l7.2 6.5c2.9 2.8 0 5.9 0 5.9z"/><path class="st1" d="M688.6 32.8h-23.1s-14.7 35.7-16.1 40.5c0 0-2.8 8.7 1.4 12.2 0 0 4.5 4.5 9.5 4.5l16.1-.2 6.9-15.9h-5.1s-5.9-1.2-3.4-6.9l13.8-34.2zM678 9.8s8.6-2.8 13.4.5c0 0 6.2 3.7 1.2 10.4 0 0-3.9 6.5-14.7 6.7 0 0-9 1.1-9.7-6.4.1 0-.3-7.6 9.8-11.2zM648 36.4s-3.1-3.4-10.9-4.1l-58.8.2-6.1 16.2h5s5.5 0 2.3 8l-21.8 55.8 22.9.2 8.4-22.9 29.8.2s8.6.9 16.4-8.6c0 0 11.9-18.9 15-33.1 0 0 3-7.8-2.2-11.9zm-23.8 18.9c0 3.1-5.9 14.3-5.9 14.3-3 4.1-7.8 4.1-7.8 4.1h-14.8l10-24.2h15.4c5.3.2 3.1 5.8 3.1 5.8zM558.7 64.5l12.9-32-46.5-.2c-7 0-14.8 3.6-14.8 3.6-9 4.4-11.1 10.6-11.1 10.6-3.4 5.1-10.4 25-10.4 25-4.1 9.8 0 13.3 0 13.3 3.9 5.5 11.4 5.3 11.4 5.3l59.6.2 6.5-15.7-7.3-1.2c-3.6-1.9-.3-8.9-.3-8.9zm-26.2 8.9l-15.4.3s-5.6-.3-3.1-7.6c0 0 2.8-9.8 5.9-13.1 0 0 2-3.7 8.1-3.7l13.6.3-9.1 23.8zM497.9 32.7L491 49.2h-18.2s-5-.9-8.1 6.1l-13.6 34.6-23.4.3 22.8-57.7 47.4.2z"/><path class="st2" d="M817.4-99.4s-22.6 7.6-30.3 16.5c0 0-12.9 11.5-17.2 29.8 0 0-2 17.2 6.4 25.6 0 0 7.8 10 15.4 12.6 0 0 10.9 4.5 27.1 3 0 0 27.1-3.4 41.3-19 0 0-6.9 14.5-28.7 29.3 0 0-15 10.9-39 16.4 0 0-22 5.8-41.2.9 0 0-19.6-3.9-28.8-15.6 0 0-10-9.8-10.1-23.9 0 0-1.2-15.7 11.7-33.5 0 0 13.3-16.2 26.5-24 0 0 17.3-9.8 30.4-13.7.2 0 17.8-5.6 36.5-4.4z"/><path class="st3" d="M447.2 125.5l-14.8 26.3-3.8-26.6M473.8 149.6s-9.2 8.7-11.8-2.7c0 0 0-13.4 8.3-13.8 0 0 6.3-.9 4.7 5 0 0-.8 3-4.4 4.5 0 0-6 .6-7.5.4M498.7 133l-3.4 20M497.6 139.2s6.8-6.4 9.5-5.7c0 0 3.9-.1 3.3 4.2l-3.3 15M535.2 128.6l6.8-4.1M535.7 133.2l-4.6 20.1M568.5 134.3s-6.2-3.5-9.7.5c0 0-3.3 4.6 1 6.6 0 0 7.2 2.4 6.8 5.6 0 0 .5 4.2-6.8 5.6 0 0-4.3.6-6.5-1.8M577.1 151.4s.1-2.6 2.5-1.9c0 0 1.7 1.5-.2 2.7 0 0-1.3 1.2-2.3-.8zM579.4 152.2s-.6 4.4-4.2 5.8M629.1 133.4l-5.5 27.2M628.2 139s4.7-5.1 8.4-5.2c0 0 5.2-.4 4.8 4.8 0 0 .2 8-3.3 10.7 0 0-3.3 4.3-11.7 2.3M674.1 152.6s-.7-3.6 0-6.7l2.1-9s1.3-5.7-7.3-3c0 0-5.3 3.4-6.4 9.8 0 0-1.9 6.9 2.2 8.2 0 0 3 1.5 8.5-4"/><path class="st3" d="M674.1 152.6s-.7-3.6 0-6.7l2.1-9s1.3-5.7-7.3-3c0 0-5.3 3.4-6.4 9.8 0 0-1.9 6.9 2.2 8.2 0 0 3 1.5 8.5-4M712.2 136s-2.7-5.7-9.2-1.1c0 0-5.5 4.1-5.8 8.9 0 0-1.7 7.9 3.7 8.5 0 0 5.1-.3 9.2-5 0 0 3.1-8.6 2.1-11.3z"/><path class="st3" d="M711.1 144s-1.1 9.7-3.4 13.4c0 0-4.8 6.3-14.2 1M749.5 124.3l-8 4.7M744.8 152.7s-.7-3.6 0-6.7l2.1-9s1.3-5.7-7.3-3c0 0-5.3 3.4-6.4 9.8 0 0-1.9 6.9 2.2 8.2 0 0 3 1.5 8.5-4M780.6 134.3s-6.2-3.5-9.7.5c0 0-3.3 4.6 1 6.6 0 0 7.2 2.4 6.8 5.6 0 0 .5 4.2-6.8 5.6 0 0-4.3.6-6.5-1.8M824.6 133l2.6 19.9M838 133.7s-7.9 15.4-10.2 19.4c0 0-2.2 4.8-6.6 7.1M882.2 153.3s-3.5-.7-2.1-7.6l4.3-22"/><path class="st4" d="M908 125.4s1.1-.4 1.2 1c0 0-.2 2.1-1.2 1.3 0 0-1.5-2.4 0-2.3z"/><path class="st3" d="M907.2 132.5l-4.9 20.9M939.3 134.3s-6.2-3.5-9.7.5c0 0-3.3 4.6 1 6.6 0 0 7.2 2.4 6.8 5.6 0 0 .5 4.2-6.8 5.6 0 0-4.3.6-6.5-1.8M964.8 127.6s-4 13.2-4.8 20.2c0 0-1.6 6.9 5.1 4.7M969 133.8l-10.2-.2M995.2 133.5s5.9-.4 5.5 7.1c0 0-1.1 6.3-4.3 9.4 0 0-7.2 5.4-9.7-.5 0 0-1.8-7.7 1.4-11.3 0 .1 2.8-4.9 7.1-4.7zM1010.9 149.4s1.4.1 1.4 1.3c0 0-.2 1.9-1.4 1.2 0-.1-2.3-1.5 0-2.5z"/></svg> 