<svg xmlns="http://www.w3.org/2000/svg" viewBox="345 -205 750 471"><style>.st0{fill:url(#rectangle_1_);} .st1{fill:#FF1722;} .st2{fill:#FFFFFF;}</style><g id="diners_2_"><linearGradient id="rectangle_1_" gradientUnits="userSpaceOnUse" x1="720" y1="-205" x2="720" y2="266"><stop offset="0" stop-color="#F2F2F2"/><stop offset="1" stop-color="#CCC"/></linearGradient><path id="rectangle_2_" class="st0" d="M385-205h670c22.1 0 40 17.9 40 40v391c0 22.1-17.9 40-40 40H385c-22.1 0-40-17.9-40-40v-391c0-22.1 17.9-40 40-40z"/></g><path class="st1" d="M744.9 65.3c-17.6 0-35.2.2-52.8 0-33.8-.5-65.3-23.9-73.2-54.4-1-3.9-1.4-8.1-1.5-12.1-.2-17.9-.1-35.8-.1-53.7 0-43.1 33.3-76.3 76.5-76.4H744c43.6-.1 79.3 34.6 78.7 78.5-.4 30.8 0 61.6-.1 92.4 0 18-7.7 25.7-25.8 25.7-17.3.1-34.6 0-51.9 0zm64.9-72.2h.1c0-15.6.2-31.1 0-46.7-.6-38.5-30.3-67.6-68.7-67.6h-43.1c-34.4.1-62.1 22.2-67 56.4-2.6 18.1-1.5 36.9-1.4 55.3.2 30.8 26.6 59.3 57.3 61.1 18.1 1.1 36.4.2 54.6.3 5.6 0 8-2.8 8-8.1V19.1c-.1-11.8-1.2-13-13.2-13.1-12-.1-24.1.5-36.1-.2-15.8-.8-22.7-8.5-22.7-24 0-11.4-.1-22.9 0-34.3.1-11.8 9.7-22.2 21.4-22.4 14.7-.3 29.4-.1 44 0 9 .1 15.2 4.8 18.1 12.9 1.5 4.3 1.4 9.2 1.4 13.9.1 29.4 0 58.7.2 88.1.1 10.8 2.4 13 12.9 13.2 7.3.2 14.7.1 22 0 10.2-.2 12.2-2.2 12.3-12.6 0-15.8-.1-31.7-.1-47.5z"/><path class="st2" d="M809.8-6.9c0 15.8.1 31.7 0 47.5-.1 10.5-2.1 12.5-12.3 12.6-7.3.1-14.7.1-22 0-10.5-.2-12.9-2.4-12.9-13.2-.2-29.4 0-58.7-.2-88.1 0-4.7.1-9.7-1.4-13.9-2.9-8.1-9.1-12.8-18.1-12.9-14.7-.1-29.4-.3-44 0-11.7.2-21.3 10.6-21.4 22.4-.1 11.4 0 22.9 0 34.3.1 15.5 6.9 23.2 22.7 24 12 .6 24.1.1 36.1.2 11.9.1 13.1 1.3 13.2 13.1v24.7c0 5.3-2.4 8.2-8 8.1-18.2-.1-36.4.8-54.6-.3-30.8-1.9-57.2-30.3-57.3-61.1-.1-18.5-1.2-37.2 1.4-55.3 5-34.2 32.6-56.3 67-56.4h43.1c38.5.1 68.1 29.1 68.7 67.6.3 15.6 0 31.1 0 46.7.1 0 .1 0 0 0z"/><g><path d="M491.9 112.3c4.6-1.7 8.3-2.5 9.7-2.8 3.9-.8 7.3-1 11.2-1 5.4 0 14 .7 18.8 5.7 2.8 3 4.1 7.6 4.1 11.3 0 1.9-.3 3.6-.7 5.3l-7.5 36.6h-14.9l1.7-8.5h-.2c-2.8 3.7-5.9 5.7-8.3 6.9-3.6 1.8-7.1 2.5-11.1 2.5-2.5 0-8.1-.2-12.2-3.1-3-2.1-5.8-5.8-5.8-11.8 0-5.3 2.2-11.2 7.6-15.3 2.7-2.1 8-5.3 17.8-6.2 2.4-.2 4.9-.3 7.5-.3h9.9l.6-2.5c.6-2.7.3-5-1.8-6.9-2.8-2.7-7.2-3-10.3-3-2.7 0-5.6.3-8.8 1.2-3.1.9-7.1 2.5-9.9 3.9l2.6-12zm22 28.8c-5.7 0-10.4.1-14.8 1.9-6.3 2.7-6.4 7.3-6.4 9.1 0 1.3.2 3 1.9 4.4 1.8 1.5 4 1.6 5.5 1.6 3.5 0 8.3-.7 12.3-4.8 3-3.1 4.1-6.7 5-10.6l.3-1.5h-3.8zM562.3 109.4l-2.5 12.5h.3c3.2-7.9 10.6-14.2 18-13.4 1.7 0 3.5.3 5.2.7l-2.8 11.1c-1-.1-2.9-.3-3.8-.3-4.6 0-9.5 1.6-13.2 5.9-3.5 3.9-4.9 8.7-5.9 13.7l-5.7 27.9h-15.2l11.8-58h13.8zM573.3 175.5c5.7 3.1 11.9 4.8 17.6 4.8 5.5 0 10.4-1.3 14.3-5.3 3.1-3.1 4.3-6.8 5-10.3l1.6-7.6h-.3c-1.9 3-4.3 5.5-7.2 7.3-3.5 2.1-6.9 3.2-11.9 3.2-6.7 0-11.8-2.2-15.1-6.6-2.1-2.7-4.4-7.1-4.4-14.2 0-9.6 3.7-20.4 9.2-27.3 5.7-7.1 13.4-11 21.9-11 4.4 0 8.2.9 11.8 3.6 2.5 1.9 4 4.3 4.8 7.1h.3l1.9-9.7h13.8l-10.9 53.4c-1.5 7.4-3.4 14.4-10.7 20.9-8 7.1-16.9 8.5-25.2 8.5-7.7 0-14.1-1.5-20.4-4l3.9-12.8zm15.6-31.1c0 4.5 1.1 11.2 9.3 11.2 10 0 18-10 18-22.1 0-6.3-2.7-12.1-10.1-12.1-11.4 0-17.2 12.2-17.2 23zM652.2 143c-.2 1.1-.4 2.2-.4 3.2 0 3.5 1.6 6.4 3.9 8.2 3.6 2.7 8.5 2.9 11 2.9 3.5 0 6.6-.4 9.9-1.2 3.1-.8 5.9-1.6 9.1-2.8l-2.4 11.4c-6.3 2.2-13.2 3.6-19.9 3.6-6.8 0-15-1.7-20-6.2-3.2-3-7.3-8.5-7.3-18 0-8.4 2.6-17.2 9.7-24.7 6.2-6.3 15-10.9 25.8-10.9 8.8 0 14 3.6 17 7.1 2.6 3 5.2 7.7 5.2 14.9 0 3.1-.6 6.5-1.1 9.1l-.8 3.5h-39.7zm25.9-10.4c.2-1 .3-2.4.3-3.7 0-2.4-.4-4.8-1.9-6.7-1.3-1.7-3.7-3.1-7.6-3.1-3.9 0-7.1 1.8-9.6 4.4-1.2 1.2-3.8 4.3-5 9.2h23.8zM692.3 167.4l11.8-58h14.7l-1.8 9.1h.3c2.6-3 5.5-5.5 8.3-6.9 4.4-2.2 8.7-3 12.7-3 3 0 8.6.4 12.5 4.7 2.9 3.2 3.7 7.4 3.7 10.7 0 1.9-.2 3.6-.4 4.9l-7.7 38.5h-15.2l7.2-35c.2-1.1.4-2.4.4-3.6 0-2.2-.6-4.4-2.2-5.9-1-.9-2.6-1.9-5.6-1.9-3.5 0-6.8 1.1-9.9 3.5-4.5 3.5-6.3 7.8-7.1 11.8l-6.4 31.2h-15.3zM804.5 121.1c-2.6-1-5-1.6-7.6-1.6-7.7 0-13.3 2.9-16.9 6.6-4.4 4.5-7.1 11.2-7.1 17.6 0 5 1.9 8.2 3.7 10 1.9 1.9 5 3.7 10.1 3.7 4.1 0 8.7-1 12.2-2.4l-1.8 11.1c-4.1 1.3-9 2.2-13.9 2.2-6.5 0-14.4-1.2-20.2-7.5-2.7-2.7-6-8.3-6-17.2 0-11.2 5-19.3 10.4-24.5 5.9-5.7 15.1-10.5 27.8-10.5 4.5 0 8.7.7 12.4 1.6l-3.1 10.9z"/><path d="M814 112.3c4.6-1.7 8.3-2.5 9.7-2.8 3.9-.8 7.3-1 11.2-1 5.4 0 14 .7 18.8 5.7 2.8 3 4.1 7.6 4.1 11.3 0 1.9-.3 3.6-.7 5.3l-7.5 36.6h-14.9l1.7-8.5h-.2c-2.8 3.7-5.9 5.7-8.3 6.9-3.6 1.8-7.1 2.5-11.1 2.5-2.5 0-8.1-.2-12.2-3.1-3-2.1-5.8-5.8-5.8-11.8 0-5.3 2.2-11.2 7.6-15.3 2.7-2.1 8-5.3 17.8-6.2 2.4-.2 4.9-.3 7.5-.3h9.9l.6-2.5c.6-2.7.3-5-1.8-6.9-2.8-2.7-7.2-3-10.3-3-2.7 0-5.6.3-8.8 1.2-3.1.9-7.1 2.5-9.9 3.9l2.6-12zm22 28.8c-5.7 0-10.4.1-14.8 1.9-6.3 2.7-6.4 7.3-6.4 9.1 0 1.3.2 3 1.9 4.4 1.8 1.5 4 1.6 5.5 1.6 3.5 0 8.3-.7 12.3-4.8 3-3.1 4.1-6.7 5-10.6l.3-1.5H836zM884.4 109.4l-2.5 12.5h.3c3.2-7.9 10.6-14.2 18-13.4 1.7 0 3.5.3 5.2.7l-2.8 11.1c-1-.1-2.9-.3-3.8-.3-4.6 0-9.5 1.6-13.2 5.9-3.5 3.9-4.9 8.7-5.9 13.7l-5.7 27.9h-15.2l11.8-58h13.8z"/><path d="M963.2 83.5l-17.1 84h-13.3l2-10.1h-.2c-2.6 3.6-5.5 6-8.3 7.7-3.7 2.1-7.9 3.2-12.3 3.2-5.3 0-9.5-1.7-12.5-4.4-4.5-4-6.8-11.2-6.8-18 0-9.9 3.7-20.2 9.5-26.9 6.7-7.7 14.8-10.5 21.9-10.5 2.1 0 10.9.3 15.1 8.7h.2l1.6-9.5 5-24.3h15.2zm-25.9 49.3c0-3.9-1-6.4-2.2-8.3-1.8-2.6-4.4-3.9-7.6-3.9-3.5 0-7.9 1.3-11.6 6.6-2.6 3.5-5.4 9.3-5.4 16.8 0 3.1.4 6.4 2.6 9 1.8 2.4 4.1 3.2 7.2 3.2 5.8 0 9.5-3.8 11.6-6.6 2.7-3.6 4.1-7.3 4.9-11.2.3-1.8.5-3.7.5-5.6z"/></g></svg> 
