<svg baseProfile="tiny" xmlns="http://www.w3.org/2000/svg" viewBox="-104 45 750 471"><path fill="#6EBB1F" d="M-64 45h670c22.1 0 40 17.9 40 40v391c0 22.1-17.9 40-40 40H-64c-22.1 0-40-17.9-40-40V85c0-22.1 17.9-40 40-40z"/><path fill="#466689" d="M283.4 410.7h-.5c-.1 0-.2-.1-.3-.2.1-.1.2-.2.3-.2h.5v.4z"/><path fill="#FFF" d="M304.1 163.5l28.6 28.3c.4.4 1 .7 1.1 1.3l-.8.8c-3.3 3.3-6.8 6.8-10.3 10.1l-47.1 46.5c-.7.8-1.1 1.6-1.1 2.6v57.2c0 .5-.1 1.1.4 1.8 40.6-39.7 80.9-79.3 121.2-119-.4-.7-1-1.1-1.3-1.6l-99-97.2c-6.7-6.6-13.4-13-19.9-19.6-.4-.4-.5-.8-1.2-.7v58.6c0 1.1.4 1.8 1.1 2.5 9.1 9.5 18.6 18.9 28.3 28.4zM163.5 403.2c-1.3 0-2.7.1-3.9.1-.8-.1-1.2.4-1.6 1.1-1.1 2.4-2.4 4.7-3.9 6.7-1.8 2.5-3.9 4.5-6.6 6.1-3 1.8-6 2.7-9.4 2.5-5.5-.4-9.7-2.7-12.3-7.8-.6-1.1-1.1-2.4-1.4-3.6-1.2-4.2-1.3-8.4-1.1-12.5.5-5.7 1.7-11.3 3.3-16.8 1.3-4.2 3-8.1 5-12.1 1.3-2.5 3-4.8 5-6.7 2.5-2.4 5.2-3.8 8.7-4.3 4.8-.5 8.7 1.1 11.6 4.9.8 1.1 1.4 2.3 1.9 3.3 1 2.1 1.6 4.3 1.9 6.4.6 3.1.8 6.3 1 9.4 0 1.1.1 1.1 1.1 1.2 1 .1 1.8.2 2.6.4.6 0 .8-.1 1-.7 0-.2.1-.4.1-.6 1.4-8.2 2.9-16.5 4.3-24.7.1-.7.6-1.6.1-2.1s-1.6-.1-2.3-.2h-.8c-.6 0-1.1.2-1.4.7-1.1 1.4-2.4 2.7-3.6 4.2-.4.4-.5.7-1.1.8l-.1-.1c-.1-.2-.4-.4-.4-.6-2-3-4.7-4.9-8-6.1-2.9-1.1-5.7-1.4-8.7-1.3-6.3.1-12.2 1.9-17.5 5.2-6.9 4.3-11.9 10.1-15.6 17.4-2.7 5.6-4.4 11.6-4.9 17.8-.4 5.1-.1 10.1 1.4 15 2.3 7.3 6.7 12.8 13.5 16.1 6.2 3.1 12.9 3.8 19.6 2.6 7.2-1.1 12.6-4.8 16.9-10.5 2.4-3.1 4.1-6.7 5.4-10.3.2 0 .3-.4.2-.9zM241.4 293.9c6 5.8 11.7 11.6 17.7 17.3.4.4.6.8 1.2.7.1-.2.1-.4.1-.6V253c0-.8-.2-1.6-.8-2-.4-.2-.5-.5-.7-.7-18.9-18.5-37.7-37.2-56.6-55.8-.5-.4-1.1-.8-1.3-1.4.4-.8 1.1-1.3 1.8-1.9l56.6-56c.8-.8 1.1-1.6 1.1-2.6V75.4c0-.4.1-1-.4-1.6-40.1 39.5-80.1 78.6-120.2 118l-1 1c0 .1-.1.1-.1.2v.5c.4.4 1.1.8 1.6 1.3 33.7 33 67.4 66.1 101 99.1zM429.3 399.1c-1.3-.4-2.5-.6-3.8-1-.4-.1-.6 0-.8.4-.4.5-.5 1.1-.8 1.6-1.8 3.3-3.8 6.6-6.3 9.4-1.9 2.3-4.1 4.2-6.6 5.8-2.7 1.8-5.8 3-9.1 3.3-2.7.4-5.4.1-8-.2-.5 0-1-.2-1.4-.4-1.1-.4-1.6-1.1-1.7-2.1-.1-1.1 0-2.3.2-3.2.2-1.3.5-2.5.8-3.8 3.7-15 7.3-30.1 10.9-45.1.4-1.1.5-2 1.1-3.1.5-1.1 1.4-1.8 2.6-2.3.7-.2 1.4-.4 2.3-.4 1.2-.1 2.5-.1 3.7-.2.4 0 .6 0 .7-.4.4-1.6.7-3 1.1-4.5.1-.2-.1-.4-.4-.4-.6-.1-1.1-.1-1.8-.1h-31.5c-.5 0-.8.4-1 .8-.4 1.2-.5 2.4-.8 3.6-.1.8-.1 1.1.8 1.1 1.4.1 3 .1 4.4.2.6 0 1.2.1 1.8.4 1.1.4 1.8 1.1 1.8 2.3 0 .6-.1 1.3-.2 2-.4 1.8-.7 3.6-1.1 5.4-3.6 15-7.3 30.1-11 45.1-.2 1-.5 1.8-.8 2.7-.6 1.6-1.8 2.5-3.5 2.6-2.5.2-4.8.2-7.3 0-.8-.1-1.7-.1-2.5-.4-1.3-.5-2.3-1.3-2.7-2.5-.2-.6-.4-1.2-.5-1.8-.6-2.9-1.1-5.6-1.7-8.5-1.4-7.8-3-15.5-4.4-23.3-1.8-9.3-3.6-18.6-5.2-27.9-.1-1.1-.2-2-.6-3-1.1-.5-2.1-.2-3.1-.2-2.5 0-1.9-.2-3.1 1.8-9.9 18.3-19.7 36.4-29.6 54.6-.8 1.6-1.8 3.1-2.7 4.5-1.1 1.3-2 2.7-3.3 3.8-1.7 1.4-3.2 2.5-5.4 2.7-.2.1-.5.1-.7.2s-.4.4-.4.4c-.4 1.6-.7 3-1.1 4.5 0 .2.1.4.4.4h24c.2 0 .4-.1.5-.4.2-.7.5-1.6.6-2.3.2-.8.6-1.7.5-2.5-.7-.5-1.6-.2-2.4-.4-.6-.1-1.1-.1-1.8-.2-.5 0-1.1-.2-1.6-.4-1.8-.6-2.7-1.8-2.6-4.1.1-1 .4-1.7.6-2.5 1.3-3.1 3.1-6.1 4.5-9.1.2-.4.5-.6 1-.6h19.4c.6 0 .8.4 1 .8.1.2.1.4.1.4l1.6 8.8c.2 1.2.4 2.4.4 3.5 0 1.4-.7 2.7-2.5 3.1-.8.1-1.7.2-2.5.2h-2.6c-.5 0-.7.2-.8.6-.2.8-.5 1.7-.6 2.5-.1.7-.7 1.6-.4 2 .5.7 1.4.4 2.1.4h86.9c.8 0 1-.1 1.1-1l2.1-8.8c1.4-4.6 2.6-9.7 3.7-14.8zm-91.1-2.9h-13.7c-.4 0-.7.1-1.2-.4l11.9-22.7c0-.1.2-.1.4-.2.2.7.4 1.4.4 2.1 1.1 6.6 2.4 13 3.5 19.6.1 1.5.1 1.6-1.3 1.6zM297.1 400.4c-1-3.8-3.1-6.8-6.4-8.9-1.3-.8-2.7-1.6-4.3-2-1.9-.6-3.9-1.1-6-1.6-.4-.2-.6-.1-1.1-.4.4 0 .7.1 1.1-.2l1.6-.4c1.8-.2 3.7-.7 5.4-1.2 3-1 5.7-2.3 8-4.2 2.7-2.3 4.5-5.1 5.2-8.7.4-2 .4-4.1.1-6.1-.6-5.6-3.5-9.7-8.6-12.1-1.6-.7-3.1-1.1-4.7-1.6-3.3-.8-6.9-1-10.4-1h-29.9c-.5 0-.8.2-1 .7-.4 1.3-.6 2.5-1 3.8-.1.5.1.7.6.7 1.4.1 3 .1 4.4.2.7 0 1.3.1 2 .4 1.1.4 1.7 1.1 1.8 2.3 0 .4 0 1-.1 1.3-.4 1.8-.7 3.6-1.1 5.4-2 8.4-3.9 16.7-6 25.1-1.8 7-3.6 14.1-5.2 21.1-.4 1-.6 1.9-1.1 2.9-.5 1.1-1.4 1.8-2.7 2-2.9.5-5.7.4-8.6-.1-1.8-.4-3.1-1.4-3.7-3.2-.2-.7-.4-1.3-.5-2l-1.6-7.6c-1.4-7.8-3-15.5-4.4-23.3-1.6-7.9-3-15.7-4.5-23.6-.4-2.1-.8-4.4-1.2-6.6-.1-.8-.4-1-1.1-1h-2.5c-2.1 0-1.8-.2-2.7 1.7l-18.4 33.9c-3.8 7.2-7.6 14.2-11.5 21.2-1.2 2.4-2.5 4.5-4.3 6.6-1.9 2.4-4.2 4.1-7.4 4.5-.5.1-.7.5-.8 1l-1 3.7v.2c0 .4.1.6.5.6h23.6c.2 0 .4-.1.5-.4.1-.4.2-.7.4-1.1.1-.4.2-1 .4-1.3.1-.4.4-.7.4-1.1s.4-.8 0-1.2c-1.2-.2-2.5-.4-3.8-.4-.8-.1-1.6-.4-2.3-.6-1.2-.5-1.9-1.6-2-3-.1-1.1.1-2.1.5-3.1 1.4-3.1 3.1-6.1 4.7-9.2.2-.4.5-.5 1-.5h19.8c.5 0 .7.4.8.8l1.6 8.8c.4 1.3.4 2.6.4 3.9-.1 1.7-.8 2.5-2.4 2.9-.8.2-1.8.4-2.6.4h-2.6c-.4 0-.6.1-.7.5l-1 4.3c-.1.4.1.6.5.6H271c3.5 0 6.9-.4 10.3-1.1 3.1-.6 6.2-1.8 8.8-3.5 3.1-2 5.5-4.9 6.7-8.6 1.1-3.6 1.2-7.1.3-10.6zm-91.1-4.3h-15.4c-.4 0-.4-.4-.4-.5.1-.4.4-.6.4-.8 3.7-7 7.4-14 11-21 .4-.4.4-.7.8-1 .1.4.2.7.4 1.1 1.1 6.1 2.1 12.2 3.1 18.3.2 1.1.4 2.1.6 3.1.2.5 0 .8-.5.8zm58.2-11.6c0-.4.1-.7.2-1.1 1.7-6.7 3.1-13.5 4.8-20.2.2-1 .5-1.8 1-2.7.6-1.6 1.8-2.4 3.5-2.5 1.8-.2 3.6-.1 5.2.4 3.1.8 6 2.9 6.3 7.6.2 3.6-.2 7-1.6 10.3-2.1 5.6-6.2 8.5-12.2 8.9-.4 0-1 .1-1.3.1h-1.8v-.2h-3.8c-.3.1-.4-.1-.3-.6zm15.6 24.8c-1.9 5.4-5.8 8.4-11.5 9.2-2.9.5-5.7.4-8.6 0-2.6-.4-3.5-1.3-3-3.9.4-1.9.8-3.8 1.2-5.8l3.9-16.5c.1-.4.2-.7.4-1.1.1-.5.4-.7 1-.7 1.4-.1 2.9-.2 4.3-.2 1.8 0 3.7 0 5.5.4.5.1 1.1.2 1.7.4 3.7 1.1 5.7 3.7 6.2 7.4.6 3.5.1 7.2-1.1 10.8zM174.5 477c1.2-.1 2.1-.2 2.6-.5 1-.5 1.4-1.3 1.4-2.6v-23.1c0-1.2-.5-2-1.3-2.5-.5-.2-1.4-.5-2.7-.6v-1.2h14.9c6 0 10.6 1.6 13.7 4.7 2.9 2.9 4.3 6.6 4.3 11.3 0 4.3-1.4 7.9-4.3 10.7-3.2 3.3-7.6 5-13.2 5h-15.4V477zm12.5-1c.4.5 1.1.6 2 .6 2.9 0 5.2-1 7.2-3 1.9-1.9 2.7-5.7 2.7-11.3 0-3.3-.5-6.2-1.6-8.6-1.7-3.8-4.3-5.7-8.2-5.7-1.3 0-2.1.2-2.5.8-.2.4-.4 1-.4 1.9v23c.2 1.1.5 1.8.8 2.3zM209.8 478.2V477c1.4 0 2.4-.2 3-.6 1-.5 1.3-1.4 1.3-2.7V451c0-1.3-.5-2.3-1.4-2.7-.6-.2-1.6-.5-3-.6v-1.2h28v9.4h-1.2c-.6-3-1.7-5.1-3.1-6.2-1.4-1.1-4.2-1.7-8.1-1.7-1.4 0-2.4.1-2.9.5-.4.2-.6.8-.6 1.8v10.9c2.7 0 4.7-.5 5.6-1.4 1-1 1.8-2.9 2.3-5.5h1.2v15.9h-1.2c-.4-2.6-1.1-4.5-2.1-5.6-1.1-1.1-3-1.7-5.7-1.7v11.3c0 1 .2 1.7.8 2 .5.4 1.7.6 3.2.6 3.1 0 5.6-.6 7.6-1.8 1.9-1.2 3.7-3.3 5.2-6.6h1.3l-2 9.8h-28.2zM242.3 477c1.3 0 2.3-.2 2.9-.5 1-.5 1.4-1.4 1.4-2.7v-22.7c0-1.3-.5-2.3-1.3-2.7-.6-.2-1.6-.5-3-.6v-1.2h15c2.9 0 5.4.4 7.3 1 3.6 1.2 5.4 3.5 5.4 6.6 0 1.9-.7 3.5-2.1 4.7-1.4 1.2-3.1 1.9-4.8 2.1v.5c1.8.4 3.3 1 4.7 1.7 2.6 1.6 3.9 3.7 3.9 6.6 0 2.6-1.2 4.7-3.7 6.3-2.5 1.6-5.8 2.4-9.9 2.4h-15.6V477h-.2zm18.1-17.7c1.1-1 1.6-2.6 1.6-5 0-1.8-.4-3.3-1-4.5-.7-1.2-2-1.8-3.9-1.8-1.1 0-1.7.1-2.1.5-.4.4-.6 1-.6 1.8v10.5c2.9-.1 4.9-.5 6-1.5zm-5.7 16.4c.4.7 1.2 1 2.3 1 2.3 0 3.9-.6 4.9-1.8 1-1.2 1.4-3 1.4-5.1 0-3.3-1.1-5.5-3.1-6.7-1.2-.7-3.2-1-5.8-1v11.7c-.1.9 0 1.5.3 1.9zM274.7 477c1.4 0 2.4-.2 3-.5 1-.5 1.4-1.4 1.4-2.9V451c0-1.4-.5-2.3-1.4-2.7-.6-.2-1.6-.5-3.1-.5v-1.2h17.1v1.2c-1.6.1-2.6.2-3.1.5-1 .5-1.4 1.4-1.4 2.7v22.7c0 1.3.4 2.1 1.2 2.6.7.5 1.9.7 3.5.7v1.2h-17.1l-.1-1.2zM294.2 446.5h29.4v9.4h-1.4c-.5-3.3-1.8-5.7-3.9-6.9-1.2-.7-3.1-1.1-5.5-1.1v24.7c0 1.7.4 2.9 1 3.5s1.9.8 3.9.8v1.2h-17.3V477c1.9 0 3.2-.2 3.8-.8.6-.6 1-1.7 1-3.5V448c-2.4.1-4.2.5-5.5 1.1-2.4 1.2-3.7 3.5-3.9 6.9h-1.4v-9.5zM355.7 450.4c3.3 3.1 5 7.2 5 12.1s-1.7 8.9-5 12.1c-3.2 3.1-7.4 4.5-12.3 4.5-5.2 0-9.4-1.7-12.8-5-3.1-3.1-4.5-6.9-4.5-11.5 0-4.9 1.6-8.9 4.8-12.2 3.2-3.2 7.4-4.8 12.5-4.8 4.9.2 9 1.8 12.3 4.8zm-4.7 21c.7-2.3 1.1-5.2 1.1-8.8 0-5-.7-8.7-2.3-11.3-1.6-2.5-3.7-3.8-6.3-3.8-3.7 0-6.2 2.1-7.5 6.3-.7 2.3-1.1 5.1-1.1 8.7 0 3.7.4 6.6 1.1 8.8 1.3 4.2 3.8 6.2 7.5 6.2 3.5.1 6-2 7.5-6.1z"/></svg>