<svg xmlns="http://www.w3.org/2000/svg" viewBox="-104 45 750 471"><style>.st0{fill:#002A5B;} .st1{fill:#FFFFFF;} .st2{fill:#466689;} .st3{fill:#002A5C;}</style><g id="diners"><path id="rectangle" class="st0" d="M-64 45h670c22.1 0 40 17.9 40 40v391c0 22.1-17.9 40-40 40H-64c-22.1 0-40-17.9-40-40V85c0-22.1 17.9-40 40-40z"/></g><path class="st1" d="M263.3 102.6c.4.6.3 1.1.3 1.5v56.1c0 1.1-.3 1.8-1.1 2.6L207 217.7c-.6.6-1.3 1.1-1.7 1.9.3.6.8 1 1.3 1.4 18.5 18.3 37 36.6 55.5 54.8.2.2.4.5.7.7.6.5.8 1.2.8 2v57.2c0 .2 0 .4-.1.6-.6.1-.9-.4-1.2-.7-5.8-5.6-11.5-11.3-17.3-17-33-32.4-66-64.9-99.1-97.3-.5-.5-1.1-1-1.5-1.3v-.5c0-.1.1-.1.1-.2l.9-.9c39.3-38.6 78.6-77.1 117.9-115.8zM277.6 336.5c-.4-.7-.3-1.2-.3-1.7v-56.1c0-1.1.4-1.8 1.1-2.6l46.2-45.6c3.4-3.3 6.8-6.7 10.1-10l.8-.8c-.1-.6-.6-.9-1-1.3l-28.1-27.8c-9.4-9.3-18.8-18.6-28.2-27.8-.7-.7-1-1.4-1-2.4v-56.3-1.1c.7-.1.9.4 1.2.7 6.5 6.4 13 12.8 19.6 19.2l97.2 95.4c.4.4 1 .8 1.3 1.5-39.5 38.8-79.1 77.7-118.9 116.7zM283.4 410.7c1.9.4 3.9.9 5.8 1.5 1.5.5 2.9 1.2 4.2 2 3.3 2.1 5.4 5 6.3 8.8.8 3.5.7 6.9-.3 10.4-1.1 3.6-3.4 6.4-6.5 8.4-2.6 1.7-5.6 2.8-8.7 3.4-3.3.7-6.7 1.1-10.1 1.1H205.5c-.4 0-.6-.2-.5-.6l.9-4.2c.1-.4.4-.5.7-.5h2.6c.9 0 1.8-.1 2.6-.3 1.5-.4 2.2-1.2 2.3-2.8 0-1.3-.1-2.6-.4-3.9l-1.5-8.7c-.1-.5-.3-.8-.8-.8h-19.1c-.4 0-.7.2-.9.5-1.6 3-3.2 5.9-4.6 9-.4 1-.6 2-.5 3.1.1 1.4.8 2.4 2 2.9.7.3 1.4.5 2.2.6 1.2.1 2.5.2 3.7.4.3.4 0 .8 0 1.2 0 .4-.2.7-.3 1.1-.1.4-.2.9-.3 1.3-.1.4-.2.7-.3 1.1-.1.3-.3.4-.5.4h-23.2c-.4 0-.5-.2-.5-.6v-.2l.9-3.6c.1-.4.3-.8.8-.9 3.1-.4 5.3-2.1 7.2-4.4 1.7-1.9 3-4.1 4.2-6.4 3.7-6.9 7.5-13.8 11.2-20.8l18-33.3c1-1.8.6-1.6 2.7-1.6h2.4c.8 0 1 .1 1.1.9.4 2.1.8 4.3 1.2 6.4 1.5 7.7 2.9 15.5 4.4 23.2 1.4 7.6 2.9 15.2 4.3 22.8l1.5 7.5c.1.7.3 1.3.5 2 .5 1.8 1.8 2.9 3.6 3.2 2.8.5 5.6.6 8.4.1 1.3-.2 2.2-.9 2.7-2 .4-.9.7-1.9 1-2.8 1.7-6.9 3.5-13.8 5.2-20.7 2-8.2 3.9-16.4 5.9-24.6.4-1.8.7-3.5 1.1-5.3.1-.4.1-.9.1-1.3-.1-1.1-.6-1.9-1.7-2.2-.7-.2-1.3-.3-2-.3-1.4-.1-2.9-.1-4.3-.2-.5 0-.7-.2-.6-.7.3-1.3.6-2.5.9-3.8.1-.5.4-.7.9-.7H280.1c3.4 0 6.9.1 10.2.9 1.6.4 3.1.8 4.6 1.5 5 2.3 7.8 6.3 8.4 11.8.2 2 .3 4-.1 6-.6 3.5-2.4 6.3-5.1 8.5-2.3 1.9-5 3.2-7.9 4.1-1.7.5-3.5 1-5.3 1.2l-1.5.3c-.3.3-.6.2-1 .2.4.3.7.2 1 .4zM429.4 421.7c-1.2 5.1-2.4 10.1-3.6 15l-2.1 8.7c-.2.8-.3.9-1.1.9h-85.2c-.7 0-1.6.4-2.1-.3-.4-.5.2-1.3.3-2 .1-.8.4-1.6.6-2.4.1-.4.3-.6.8-.6h2.6c.8 0 1.6-.1 2.4-.2 1.8-.3 2.5-1.6 2.5-3 0-1.1-.2-2.2-.4-3.4l-1.5-8.7c0-.1 0-.2-.1-.4-.1-.5-.3-.8-.9-.8H322.5c-.4 0-.7.2-.9.6-1.5 2.9-3.2 5.8-4.5 8.9-.3.8-.5 1.5-.6 2.4-.1 2.2.8 3.4 2.6 4 .5.1 1 .3 1.5.3.6.1 1.1.1 1.7.2.8.1 1.6-.2 2.3.3.1.8-.3 1.6-.5 2.4-.1.7-.4 1.5-.6 2.2-.1.3-.3.4-.5.4h-23.5c-.2 0-.3-.2-.3-.4.3-1.5.6-2.9 1-4.4 0-.1.2-.3.4-.4.2-.1.5-.1.7-.2 2.1-.3 3.7-1.3 5.3-2.7 1.3-1.1 2.3-2.5 3.3-3.8 1-1.4 1.9-3 2.7-4.5 9.7-17.9 19.3-35.7 29-53.6 1.1-2 .6-1.8 3-1.8 1 0 2.1-.3 3.1.2.4.9.5 1.9.6 2.9 1.7 9.1 3.5 18.3 5.2 27.4 1.4 7.6 2.9 15.2 4.3 22.8.5 2.8 1 5.5 1.6 8.3.1.6.3 1.2.5 1.8.5 1.2 1.4 2 2.7 2.5.8.3 1.6.3 2.4.4 2.4.2 4.7.2 7.1 0 1.7-.2 2.8-1.1 3.4-2.6.3-.9.6-1.8.8-2.7 3.7-14.7 7.3-29.4 10.8-44.2.4-1.8.8-3.5 1.1-5.3.1-.7.2-1.4.2-2 0-1.1-.6-1.9-1.7-2.2-.6-.2-1.2-.3-1.8-.3-1.4-.1-2.9-.1-4.3-.2-.9 0-.9-.2-.8-1 .3-1.2.5-2.3.8-3.5.1-.5.4-.8.9-.8H412.4c.6 0 1.1 0 1.7.1.2 0 .4.2.3.4-.3 1.5-.7 2.9-1 4.4-.1.4-.4.4-.7.4-1.2.1-2.4.1-3.6.2-.8 0-1.5.2-2.2.4-1.2.4-2.1 1.1-2.6 2.2-.5 1-.7 2-1 3-3.6 14.8-7.1 29.5-10.7 44.3-.3 1.2-.6 2.4-.8 3.7-.2 1-.3 2.1-.2 3.2.1 1 .6 1.7 1.6 2.1.5.2.9.4 1.4.4 2.6.3 5.2.5 7.9.2 3.2-.4 6.2-1.5 8.9-3.3 2.4-1.6 4.5-3.5 6.4-5.7 2.5-2.9 4.5-6 6.2-9.3.3-.5.5-1 .8-1.5.2-.3.4-.4.8-.3 1.3.3 2.5.5 3.8.9zM168.5 425.8c.2.5.1.8 0 1.1-1.3 3.6-3 7-5.3 10.1-4.2 5.6-9.6 9.2-16.6 10.3-6.6 1.1-13.1.4-19.2-2.6-6.7-3.3-11-8.7-13.2-15.8-1.5-4.8-1.8-9.7-1.4-14.7.5-6.1 2.1-11.9 4.8-17.4 3.6-7.1 8.5-12.9 15.3-17.1 5.3-3.3 11-5.1 17.2-5.2 2.9-.1 5.7.3 8.5 1.3 3.2 1.2 5.8 3.1 7.8 6 .1.2.3.4.4.6l.1.1c.5-.1.7-.5 1-.8 1.2-1.4 2.4-2.7 3.5-4.1.4-.5.8-.7 1.4-.7h.6c.7.1 1.7-.3 2.2.2.5.6 0 1.4-.1 2.1-1.4 8.1-2.8 16.1-4.2 24.2 0 .2-.1.4-.1.6-.1.6-.3.7-.9.7-.9-.1-1.7-.2-2.6-.3-.9-.1-1-.2-1-1.2-.1-3.1-.3-6.2-.9-9.3-.4-2.1-1-4.2-1.9-6.3-.5-1.1-1.1-2.2-1.9-3.3-2.8-3.8-6.6-5.3-11.3-4.8-3.4.4-6.2 1.9-8.6 4.2-2 1.9-3.6 4.2-4.9 6.6-2 3.8-3.6 7.7-4.9 11.8-1.7 5.4-2.8 10.9-3.3 16.5-.3 4.1-.2 8.2 1 12.3.3 1.2.8 2.4 1.4 3.5 2.6 4.9 6.7 7.3 12.1 7.6 3.4.2 6.4-.7 9.3-2.5 2.5-1.6 4.6-3.6 6.4-6 1.6-2 2.9-4.3 3.9-6.6.3-.7.7-1.1 1.5-1 1.2 0 2.6-.1 3.9-.1z"/><path class="st2" d="M283.4 410.7h-.5c-.1 0-.2-.1-.3-.2.1-.1.2-.2.3-.2h.5v.4z"/><path class="st3" d="M270.7 413c1.8 0 3.6 0 5.4.4.5.1 1.1.2 1.6.4 3.6 1.1 5.6 3.6 6.1 7.3.5 3.6.1 7.2-1.1 10.7-1.9 5.3-5.7 8.2-11.2 9-2.8.5-5.6.4-8.4 0-2.6-.3-3.4-1.3-2.9-3.9.3-1.9.8-3.8 1.2-5.7l3.9-16.2c.1-.4.2-.7.3-1.1.1-.5.4-.7.9-.7 1.4-.1 2.8-.2 4.2-.2zM271.5 408.1h-3.7c-.4 0-.6-.2-.5-.6 0-.4.1-.7.2-1.1 1.6-6.6 3.1-13.2 4.7-19.8.2-.9.5-1.8.9-2.7.6-1.5 1.8-2.3 3.4-2.5 1.8-.2 3.5-.1 5.2.4 3 .8 5.9 2.8 6.2 7.5.2 3.5-.2 6.9-1.5 10.1-2.1 5.5-6.1 8.3-11.9 8.8-.4 0-.9.1-1.3.1h-1.7v-.2zM206.8 396c.1.4.2.7.3 1.1 1 6 2.1 11.9 3.1 17.9.2 1 .4 2.1.6 3.1.1.5-.1.7-.6.7h-15.1c-.3 0-.4-.3-.3-.5.1-.3.3-.6.4-.8 3.6-6.9 7.2-13.7 10.8-20.6.3-.3.4-.7.8-.9zM325.2 418.5l11.7-22.2c0-.1.2-.1.4-.2.2.7.3 1.4.4 2.1 1.1 6.4 2.3 12.8 3.4 19.2.2 1.4.2 1.5-1.2 1.5h-13.5c-.4 0-.7.1-1.2-.4z"/></svg>