<svg baseProfile="tiny" xmlns="http://www.w3.org/2000/svg" viewBox="-104 45 750 471"><path fill="#003473" d="M-64 45h670c22.1 0 40 17.9 40 40v391c0 22.1-17.9 40-40 40H-64c-22.1 0-40-17.9-40-40V85c0-22.1 17.9-40 40-40z"/><path d="M547.1 380.6c0-3.2 2.6-5.8 5.8-5.8s5.8 2.6 5.8 5.8c0 3.2-2.6 5.8-5.8 5.8s-5.8-2.6-5.8-5.8zm5.8 4.4c2.4 0 4.4-2 4.4-4.4s-2-4.4-4.4-4.4-4.4 2-4.4 4.4 1.9 4.4 4.4 4.4zm-.8-1.9h-1.2V378h2.1c.5 0 .9 0 1.3.3s.6.8.6 1.3c0 .6-.3 1.1-.9 1.3l.9 2.2h-1.3l-.8-2h-.9v2h.2zm0-2.9h.7c.2 0 .5 0 .7-.1s.3-.4.3-.6-.1-.4-.3-.5-.5-.1-.8-.1h-.6v1.3z"/><path fill="#009DDD" d="M270.8 413.5c36.3-32.8 59.2-80.3 59.2-133.2 0-52.8-22.9-100.4-59.2-133.5-31.7-28.9-74-46.5-120.5-46.5-99.4 0-180 80.7-180 180 0 99.4 80.7 179.7 180 179.7 46.5 0 88.8-17.6 120.5-46.5z"/><path fill="#009DDD" d="M270.8 413.5c36.3-32.8 59.2-80.3 59.2-133.2 0-52.8-22.9-100.4-59.2-133.5v266.7z"/><path fill="#ED1C2E" d="M391.7 100.3c-46.5 0-88.8 17.6-120.9 46.5-6.3 6-12.3 12.3-18 19h36.3c4.9 6 9.5 12.7 13.7 19H239c-3.9 6.3-7.4 12.7-10.6 19H313c2.8 6.3 5.6 12.7 7.8 19h-99.7c-2.1 6.3-3.9 12.7-5.3 19.4h110.3c2.5 12 3.9 25 3.9 38.1 0 19.7-3.2 39.1-9.2 57.1h-99.7c2.1 6.3 4.6 12.7 7.4 19h84.6c-3.2 6.3-6.3 13-10.2 19h-63.8c4.2 6.7 8.8 13 13.7 19h36.3c-5.6 6.7-11.6 13-18.3 19 32.1 28.9 74.3 46.5 120.9 46.5 99.4 0 179.7-80.3 179.7-179.7 0-99.2-80.4-179.9-179.7-179.9z"/><path fill="#003473" d="M122.1 330.4H99.6l13.4-70.2-30.7 70.2h-19l-3.9-69.8-14.8 69.8H24.2l17.3-91.3H77l.4 56.4 24.7-56.4h37.7M372.3 329.3c-6.3 1.8-10.9 2.5-16.2 2.5-11.3 0-17.6-5.6-17.6-16.2 0-2.1.3-4.6.7-6.7l1.4-7.4 1.1-5.6 10.2-56.7h22.2l-3.2 16.9h11.3l-2.8 18h-11.6l-6 31c0 1.4-.3 2.5-.3 3.2 0 3.9 2.5 5.3 7.7 5.3 2.5 0 4.6 0 6-.7l-2.9 16.4zM283.5 279.6c0 9.2 5.3 15.9 16.9 20.4 9.5 3.9 10.9 4.9 10.9 8.5 0 4.6-4.2 6.7-13 6.7-7 0-13-1.1-20.4-3.2l-3.2 17.3h1.1l4.2.7c1.4.4 3.2.7 6 .7 5.3.4 9.5.7 12.3.7 24 0 34.9-7.8 34.9-24.7 0-10.2-4.6-16.2-15.9-20.8-9.5-3.5-10.6-4.6-10.6-8.1 0-3.9 3.9-6 10.9-6 4.6 0 10.6.4 16.6 1.1l3.2-16.9c-6-1.1-14.8-1.8-20.1-1.8-25.3 0-34.1 11.7-33.8 25.4zM194.7 330.4H176l.4-7.8c-5.6 6-13.4 8.8-23.6 8.8-12 0-20.4-8.1-20.4-20.1 0-18 14.4-28.5 39.5-28.5 2.5 0 5.6 0 9.2.4.7-2.5.7-3.5.7-4.6 0-4.9-3.9-7-14.4-7-6.3 0-13.4 1.1-18.3 2.1l-3.2 1.1-2.1.4 3.2-16.6c11.3-3.2 18.7-4.2 26.8-4.2 19.4 0 29.6 7.7 29.6 21.8 0 3.9-.4 6.3-2.1 14.8l-4.6 26.1-.7 4.9-.7 3.9-.4 2.5v2h-.2zm-15.1-33.2c-2.5-.4-3.5-.4-5.3-.4-12.7 0-19 3.9-19 11.3 0 4.6 3.2 7.4 8.1 7.4 9.1.1 15.8-7.3 16.2-18.3zM268 328.6c-7.4 2.1-14.8 3.2-22.9 3.2-25 0-38.1-11.6-38.1-33.5 0-25.4 16.6-44 39.1-44 18.7 0 30.3 10.6 30.3 26.8 0 5.6-.7 10.9-2.8 18.3h-44.4c-.4 1.4-.4 1.8-.4 2.5 0 8.5 6.7 13 19.7 13 8.1 0 15.2-1.4 23.3-4.9l-3.8 18.6zm-10.6-44.1v-3.9c0-6-3.9-9.5-10.6-9.5-7 0-12.3 4.6-14.4 13.4h25zM506.9 296.5c-3.2 24.7-20.4 35.6-43.3 35.6-25.4 0-35.6-15.2-35.6-34.2 0-26.1 17.3-44 44-44 23.3 0 35.6 14.8 35.6 33.5 0 4.5 0 4.9-.7 9.1zm-22.6-8.8c0-7.8-3.2-15.2-12.3-15.2-11.3 0-18.7 13.7-18.7 25.4 0 10.2 4.9 16.9 13 16.9 4.9 0 15.1-6.7 17.3-18.3.4-2.4.7-5.6.7-8.8z"/><path fill="#FFF" d="M509.3 319.1c0-3.2 2.8-5.6 6-5.6s5.6 2.5 5.6 5.6c0 3.2-2.5 6-5.6 6s-6-2.9-6-6zm6 4.6c2.5 0 4.2-2.1 4.2-4.6s-1.8-4.2-4.2-4.2c-2.5 0-4.6 1.8-4.6 4.2.1 2.4 2.2 4.6 4.6 4.6zm-.7-2.2h-1.4v-4.9h2.1c.7 0 1.1 0 1.4.3.4.4.7.7.7 1.1 0 .7-.3 1.4-1.1 1.4l1.1 2.1H516l-.7-1.8h-.7v1.8zm0-2.8h1.4v-1.1H514.6v1.1zM127.8 325.1h-22.6l13.4-70.1L88 325.1H67.5L64 255.3l-13.4 69.8H30.2l17.2-91.3h35.3l1.7 56.4 24.7-56.4h36.3M377.9 324c-6.3 1.8-10.9 2.5-16.2 2.5-11.3 0-17.6-5.6-17.6-16.2 0-2.1.3-4.2.7-6.7l1.4-7.4 1.1-5.6 10.2-56.7h22.2l-3.2 16.9h11.6l-3.2 18h-11.6l-5.6 31c-.3 1.4-.7 2.5-.7 3.2 0 3.9 2.5 5.6 7.8 5.6 2.5 0 4.6-.4 6-.7l-2.9 16.1z"/><path fill="#003473" d="M435.4 272.2l-.3-2.5 4.2-11.6c-1.1 0-1.4 0-1.8-.4-1.1 0-1.8-.4-1.8-.4h-2.1c-7.4 0-12.7 3.2-19.7 12l2.5-13.4h-23.3l-13.7 74.3h22.2c3.2-17.3 4.6-26.8 6.3-34.9 2.8-13.4 12.7-19.4 20.1-18 .7 0 1.4 0 2.5.4l1.4.7 3.5-6.2z"/><path fill="#FFF" d="M443.1 251.4c-1.8-.7-2.1-.7-2.5-.7-1.1-.4-1.8-.4-1.8-.7h-2.5c-7.4 0-12.7 3.2-19.4 12l2.1-11.3h-20.4L385 325.1h22.5c8.1-45.4 11.3-53.6 22.2-53.6.7 0 1.8.4 2.8.4l2.5.7 8.1-21.2zM289.1 274.3c0 9.2 5.3 15.9 17.3 20.4 9.2 3.9 10.6 4.9 10.6 8.5 0 4.6-4.2 6.7-13 6.7-6.7 0-13-1.1-20.4-3.2l-2.8 17.3h1.1l3.9 1.1c1.4 0 3.5.4 6 .4 5.3.7 9.5.7 12.7.7 23.6 0 34.9-7.8 34.9-24.7 0-10.2-4.6-16.2-16.2-20.8-9.5-3.5-10.6-4.6-10.6-8.1 0-3.9 3.9-6 11.3-6 4.2 0 10.6.4 16.2 1.1l3.2-16.9c-6-1.1-14.8-1.4-19.7-1.4-25.7-.1-34.5 11.2-34.5 24.9zM200.4 325.1H182l.4-7.8c-5.6 6-13.4 8.8-23.6 8.8-12 0-20.4-8.1-20.4-20.1 0-18 14.4-28.5 39.5-28.5 2.5 0 5.6 0 9.2.4.7-2.5.7-3.5.7-4.6 0-4.9-3.9-6.7-14.4-6.7-6.3 0-13.4.7-18.3 1.8l-3.2 1.1-2.1.4 3.2-16.6c11.3-2.8 18.3-3.9 26.8-3.9 19.4 0 29.2 7.4 29.2 21.5 0 3.9-.4 6.7-1.8 14.8l-4.6 26.4-.7 4.6-.7 3.9-.4 2.5-.4 2zm-16.3-33.2c-2.5-.4-3.5-.4-4.9-.4-12.7 0-19 3.9-19 11.3 0 4.6 2.8 7.8 7.8 7.8 9.1 0 15.8-7.7 16.1-18.7zM274 323.3c-7.8 2.1-15.2 3.2-22.9 3.2-25 0-38.1-11.6-38.1-33.5 0-25.4 16.6-44 39.1-44 18.3 0 29.9 10.6 29.9 26.8 0 5.6-.7 10.9-2.5 18.3h-44.7v2.5c0 8.5 6.3 13 19.4 13 8.1 0 15.5-1.4 23.3-4.6l-3.5 18.3zm-12-44v-3.9c0-6-3.9-9.5-10.6-9.5-7 0-12 4.9-14.1 13.4H262zM512.9 291.2c-3.5 24.7-20.8 35.6-43.7 35.6-25 0-35.2-15.1-35.2-34.2 0-26.1 17.3-44 44-44 23.3 0 35.6 14.8 35.6 33.5 0 4.6 0 4.9-.7 9.1zm-23.3-9.5c0-7.8-3.2-14.8-12.3-14.8-11.3 0-18.3 13.4-18.3 25.4 0 9.9 4.9 16.6 12.7 16.6 4.9 0 15.5-6.7 17.3-18 .6-2.8.6-6 .6-9.2z"/></svg>