<svg xmlns="http://www.w3.org/2000/svg" xmlns:xlink="http://www.w3.org/1999/xlink" viewBox="345 -205 750 471"><style>.st0{fill:url(#rectangle_1_);} .st1{fill:#11159A;} .st2{fill:#009ADA;} .st3{fill:#FFFFFF;}</style><g id="diners_2_"><linearGradient id="rectangle_1_" gradientUnits="userSpaceOnUse" x1="719.264" y1="-194.833" x2="720.764" y2="264.144"><stop offset="0" stop-color="#DFF0F4"/><stop offset="1" stop-color="#BAD7E0"/></linearGradient><path id="rectangle_2_" class="st0" d="M385-205h670c22.1 0 40 17.9 40 40v391c0 22.1-17.9 40-40 40H385c-22.1 0-40-17.9-40-40v-391c0-22.1 17.9-40 40-40z"/></g><title>diners</title><image width="300" height="200" xlink:href="Logo-Argencard.jpg" transform="translate(1177 -562)" overflow="visible"/><path class="st1" d="M636.4 23.9c0-41.7-51.8-75.7-115.8-75.7s-115.8 34-115.8 75.7v4.4c0 44.3 45.3 80.1 115.8 80.1 70.9 0 115.8-35.8 115.8-80.1v-4.4z"/><path class="st2" d="M631.9 23.8c0 39.3-49.8 71.2-111.3 71.2S409.3 63.1 409.3 23.8c0-39.3 49.8-71.2 111.3-71.2s111.3 31.9 111.3 71.2z"/><path class="st3" d="M483.6 1.3c-.1.1-1.2 1.3-.4 2.2 1.8 2.2 7.2 3.5 12.7 2.3 3.3-.7 7.5-4.1 11.5-7.3 4.4-3.5 8.8-7 13.1-8.4 4.6-1.5 7.6-.8 9.6-.2 2.2.6 4.7 2.1 8.7 5.1 7.6 5.7 38.3 32.5 43.5 37.1 4.3-1.9 23.2-10.1 49-15.8-2.2-13.7-10.6-26.3-23.2-36.6-17.6 7.4-39.2 11.3-60.3 1-.1 0-11.5-5.4-22.8-5.2-16.7.4-24 7.6-31.7 15.3l-9.7 10.5z"/><path class="st3" d="M581.1 35c-.4-.3-36-31.5-44.1-37.6-4.7-3.5-7.3-4.4-10-4.7-1.4-.2-3.4.1-4.8.5-3.8 1-8.7 4.3-13 7.8-4.5 3.6-8.8 7-12.7 7.9-5 1.1-11.2-.2-14-2.1-1.1-.8-1.9-1.7-2.3-2.6-1-2.4.9-4.3 1.2-4.7l9.8-10.6c1.1-1.1 2.3-2.3 3.5-3.4-3.2.4-6.1 1.2-9 2-3.6 1-7 2-10.5 2-1.4 0-9.2-1.3-10.7-1.7-8.9-2.4-16.7-4.8-28.4-10.3-14 10.4-23.3 23.4-26 37.8 2 .5 5.2 1.5 6.6 1.8 31.7 7 41.5 14.3 43.3 15.8 1.9-2.2 4.7-3.5 7.8-3.5 3.5 0 6.7 1.8 8.6 4.5 1.8-1.4 4.3-2.7 7.5-2.7 1.5 0 3 .3 4.5.8 3.6 1.2 5.4 3.6 6.4 5.8 1.2-.5 2.7-.9 4.4-.9 1.7 0 3.5.4 5.3 1.2 5.8 2.5 6.7 8.2 6.2 12.6.4 0 .8-.1 1.3-.1 6.9 0 12.5 5.6 12.5 12.6 0 2.1-.5 4.2-1.5 5.9 1.9 1.1 6.7 3.5 10.9 2.9 3.4-.4 4.6-1.6 5.1-2.2.3-.4.6-1 .3-1.3l-8.9-9.9s-1.5-1.4-1-1.9c.5-.6 1.4.2 2.1.8 4.5 3.8 10.1 9.5 10.1 9.5.1.1.5.8 2.5 1.2 1.8.3 4.9.1 7.1-1.6.5-.4 1.1-1 1.5-1.6l-.1.1c2.3-2.9-.3-5.9-.3-5.9L542 47.1s-1.5-1.4-1-1.9 1.4.2 2.1.8c3.3 2.8 8 7.4 12.4 11.8.9.6 4.8 3.1 10-.3 3.2-2.1 3.8-4.6 3.7-6.5-.2-2.5-2.2-4.4-2.2-4.4l-14.2-14.3s-1.5-1.3-1-1.9c.4-.5 1.4.2 2.1.8 4.5 3.8 16.8 15.1 16.8 15.1.2.1 4.4 3.1 9.7-.2 1.9-1.2 3.1-3 3.2-5.1.1-3.8-2.5-6-2.5-6z"/><path class="st3" d="M512 53.2c-2.2 0-4.6 1.3-4.9 1.1-.2-.1.1-1 .3-1.5.2-.5 3.1-9.3-4-12.3-5.4-2.3-8.7.3-9.9 1.5-.3.3-.4.3-.5-.1-.1-1.6-.8-5.8-5.5-7.3-6.7-2-11 2.6-12.1 4.3-.5-3.8-3.7-6.8-7.7-6.8-4.3 0-7.8 3.5-7.8 7.8s3.5 7.8 7.8 7.8c2.1 0 4-.8 5.4-2.2 0 0 .1.1 0 .3-.3 1.9-.9 8.9 6.4 11.7 2.9 1.1 5.4.3 7.5-1.2.6-.4.7-.3.6.3-.3 1.8.1 5.6 5.5 7.8 4.1 1.7 6.5 0 8.1-1.5.7-.6.9-.5.9.4.2 5.2 4.5 9.3 9.8 9.3 5.4 0 9.8-4.4 9.8-9.8.1-5.3-4.3-9.6-9.7-9.6z"/><path class="st1" d="M582.5 31.3c-11-9.6-36.4-31.7-43.2-36.8-3.9-3-6.6-4.5-9-5.2-1.1-.3-2.5-.7-4.4-.7-1.7 0-3.6.3-5.6.9-4.4 1.4-8.9 4.9-13.2 8.3l-.2.2c-4 3.2-8.1 6.5-11.2 7.1-1.4.3-2.8.5-4.2.5-3.5 0-6.6-1-7.8-2.5-.2-.2-.1-.7.4-1.2l.1-.1 9.7-10.4c7.6-7.6 14.7-14.7 31.2-15.1h.8c10.2 0 20.5 4.6 21.6 5.1 9.6 4.7 19.5 7.1 29.5 7.1 10.4 0 21.1-2.6 32.4-7.8-1.3-1.1-2.6-2.1-3.9-3.1-9.9 4.3-19.3 6.5-28.4 6.5-9.3 0-18.6-2.2-27.6-6.6-.5-.2-11.8-5.6-23.5-5.6h-.9c-13.8.3-21.6 5.2-26.8 9.5-5.1.1-9.5 1.4-13.4 2.4-3.5 1-6.5 1.8-9.4 1.8-1.2 0-3.4-.1-3.6-.1-3.4-.1-20.4-4.3-33.9-9.4-1.4 1-2.7 2-4 3 14.1 5.8 31.4 10.3 36.8 10.6 1.5.1 3.1.3 4.7.3 3.6 0 7.2-1 10.7-2 2-.6 4.3-1.2 6.7-1.7l-1.9 1.9-9.8 10.6c-.8.8-2.5 2.9-1.3 5.4.4 1 1.3 2 2.6 2.9 2.3 1.6 6.5 2.6 10.4 2.6 1.5 0 2.9-.1 4.2-.4 4.1-.9 8.4-4.4 13-8 3.6-2.9 8.8-6.6 12.8-7.7 1.1-.3 2.5-.5 3.6-.5.3 0 .6 0 .9.1 2.6.3 5.2 1.2 9.7 4.6 8.1 6.1 43.7 37.3 44.1 37.6 0 0 2.3 2 2.1 5.2-.1 1.8-1.1 3.4-2.8 4.6-1.5 1-3.1 1.5-4.7 1.5-2.4 0-4-1.1-4.1-1.2-.1-.1-12.4-11.3-16.8-15.1-.7-.6-1.4-1.1-2.1-1.1-.4 0-.7.2-.9.4-.7.9.1 2.1 1 2.9L566.6 47s1.8 1.7 2 3.9c.1 2.4-1 4.4-3.4 5.9-1.7 1.1-3.4 1.7-5.1 1.7-2.2 0-3.7-1-4.1-1.2l-2-2c-3.7-3.7-7.6-7.5-10.4-9.8-.7-.6-1.4-1.1-2.1-1.1-.3 0-.7.1-.9.4-.3.4-.5 1 .3 2.1.3.4.7.8.7.8L552 59.4c.1.1 2.1 2.6.2 5l-.4.5c-.3.3-.6.7-1 .9-1.8 1.5-4.2 1.6-5.1 1.6-.5 0-1 0-1.4-.1-1-.2-1.7-.5-2.1-.9l-.1-.1c-.6-.6-5.8-5.9-10.2-9.6-.6-.5-1.3-1.1-2-1.1-.4 0-.7.1-.9.4-.9.9.4 2.3 1 2.9l8.9 9.8c0 .1-.1.3-.3.6-.3.4-1.4 1.5-4.6 1.9-.4.1-.8.1-1.2.1-3.3 0-6.9-1.6-8.7-2.6.8-1.8 1.3-3.7 1.3-5.6 0-7.3-5.9-13.3-13.2-13.3h-.5c.2-3.3-.2-9.7-6.7-12.4-1.9-.8-3.7-1.2-5.5-1.2-1.4 0-2.8.2-4.1.7-1.3-2.6-3.6-4.5-6.5-5.5-1.6-.6-3.2-.8-4.8-.8-2.7 0-5.2.8-7.4 2.4-2.1-2.6-5.3-4.2-8.7-4.2-3 0-5.8 1.2-7.9 3.3-2.8-2.1-13.7-9.1-43.1-15.7-1.4-.3-4.7-1.3-6.7-1.8-.3 1.6-.6 3.2-.8 4.8 0 0 5.4 1.3 6.5 1.5 30 6.7 39.9 13.6 41.6 14.9-.6 1.4-.9 2.8-.9 4.3 0 6.2 5 11.2 11.2 11.2.7 0 1.4-.1 2.1-.2.9 4.6 3.9 8 8.5 9.8 1.3.5 2.7.8 4 .8.9 0 1.7-.1 2.6-.3.8 2.1 2.7 4.8 7 6.5 1.5.6 3 .9 4.4.9 1.2 0 2.3-.2 3.4-.6 2 4.9 6.9 8.2 12.2 8.2 3.6 0 7-1.4 9.5-4 2.1 1.2 6.7 3.3 11.2 3.3.6 0 1.1 0 1.7-.1 4.5-.6 6.6-2.3 7.6-3.7.2-.2.3-.5.5-.8 1.1.3 2.2.6 3.6.6 2.5 0 4.9-.8 7.3-2.6 2.4-1.7 4-4.1 4.3-6.2v-.1c.8.2 1.6.2 2.4.2 2.5 0 5.1-.8 7.4-2.4 4.6-3 5.4-7 5.3-9.6.8.2 1.6.3 2.5.3 2.4 0 4.7-.7 7-2.1 2.9-1.8 4.6-4.6 4.8-7.9.2-2.2-.4-4.5-1.5-6.4 7.7-3.3 25.4-9.8 46.3-14.5-.1-1.6-.4-3.2-.6-4.8-25.4 5.4-44.2 13.6-48.9 15.7zM512 72c-4.9 0-8.9-3.8-9.1-8.7 0-.4-.1-1.5-1-1.5-.4 0-.7.2-1.1.6-1.1 1-2.4 2-4.4 2-.9 0-1.9-.2-2.9-.6-5.2-2.1-5.2-5.6-5-7.1.1-.4.1-.8-.2-1.1l-.3-.3h-.3c-.3 0-.5.1-.9.4-1.5 1.1-2.9 1.6-4.4 1.6-.8 0-1.6-.2-2.4-.5-6.8-2.6-6.3-9.1-5.9-11 0-.4 0-.7-.3-.9l-.5-.4-.4.4c-1.3 1.3-3.1 2-4.9 2-3.9 0-7.1-3.2-7.1-7.1 0-3.9 3.2-7.1 7.1-7.1 3.5 0 6.5 2.6 7 6.2l.2 1.9 1-1.6c.1-.2 3-4.5 8.2-4.5 1 0 2 .2 3.1.5 4.2 1.3 4.9 5.1 5 6.7.1.9.7 1 .9 1 .4 0 .6-.2.8-.4.8-.8 2.5-2.2 5.2-2.2 1.2 0 2.5.3 3.9.9 6.7 2.9 3.6 11.3 3.6 11.4-.6 1.4-.6 2-.1 2.4h.4c.3 0 .7-.1 1.3-.3.9-.3 2.3-.8 3.5-.8 5 .1 9.1 4.1 9.1 9.1 0 4.9-4.1 9-9.1 9z"/><g><path class="st1" d="M1031-24.4c-4.2-5.2-10.5-7.9-19-7.9s-14.9 2.6-19 7.9c-4.2 5.2-6.3 11.4-6.3 18.6 0 7.3 2.1 13.5 6.3 18.6 4.2 5.2 10.5 7.7 19 7.7s14.9-2.6 19-7.7c4.2-5.2 6.3-11.4 6.3-18.6-.1-7.2-2.2-13.4-6.3-18.6zm-10.4 30c-2 2.7-4.9 4-8.7 4-3.8 0-6.7-1.3-8.7-4-2-2.7-3.1-6.5-3.1-11.5s1-8.8 3.1-11.5c2-2.7 5-4 8.7-4 3.8 0 6.7 1.3 8.7 4 2 2.7 3 6.5 3 11.5s-1 8.8-3 11.5zM924.1-28.8c-4.2-2.1-9.1-3.2-14.5-3.2-8.4 0-14.3 2.2-17.8 6.6-2.2 2.8-3.4 6.4-3.7 10.7h12.5c.3-1.9.9-3.4 1.8-4.6 1.3-1.5 3.5-2.3 6.6-2.3 2.8 0 4.9.4 6.3 1.2 1.4.8 2.1 2.2 2.1 4.2 0 1.7-.9 2.9-2.8 3.7-1 .5-2.8.8-5.2 1.1l-4.4.5c-5 .6-8.9 1.7-11.5 3.2-4.7 2.7-7.1 7.2-7.1 13.3 0 4.7 1.5 8.3 4.4 10.9 2.9 2.6 6.7 3.6 11.2 3.9 28.4 1.3 28-14.9 28.3-18.3v-18.7c.2-6-1.9-10-6.2-12.2zM917.5-.5c-.1 4.3-1.3 7.3-3.7 9-2.4 1.6-5 2.5-7.8 2.5-1.8 0-3.3-.5-4.6-1.5-1.2-1-1.9-2.6-1.9-4.8 0-2.5 1-4.3 3.1-5.5 1.2-.7 3.2-1.3 6-1.8l3-.5c1.5-.3 2.6-.6 3.5-.9.9-.3 1.7-.7 2.5-1.2v4.7zM859.5-20.9c3.2 0 5.6 1 7.2 3 1.1 1.5 1.7 3.2 2 5h14c-.8-7.1-3.2-12-7.4-14.8-4.2-2.8-9.5-4.2-16.1-4.2-7.7 0-13.8 2.4-18.1 7.1-4.4 4.7-6.6 11.3-6.6 19.8 0 7.5 2 13.7 5.9 18.4 4 4.7 10.1 7.1 18.5 7.1s14.8-2.8 19-8.5c2.7-3.5 4.2-7.2 4.5-11.2h-13.9c-.3 2.6-1.1 4.7-2.4 6.4-1.3 1.6-3.6 2.5-6.8 2.5-4.5 0-7.6-2.1-9.2-6.2-.9-2.2-1.3-5.1-1.3-8.7 0-3.8.5-6.9 1.3-9.2 1.6-4.3 4.8-6.5 9.4-6.5zM830.7-31.9c-28.7 0-27 25.4-27 25.4v25.8h13V-4.8c0-4 .5-6.9 1.5-8.8 1.8-3.4 5.3-5.1 10.5-5.1.4 0 .9 0 1.5.1.6 0 1.4.1 2.2.2v-13.3c-.6 0-1-.1-1.1-.1-.2 0-.4-.1-.6-.1zM782.8 5.9c-.5.8-1.1 1.4-1.8 2-1.8 1.5-4.3 2-7.3 2-2.8 0-5-.4-6.9-1.7-3.3-2-5.1-5.4-5.3-10.3h36.1c.1-4.3-.1-7.5-.4-9.8-.6-3.9-1.9-7.3-3.9-10.2-2.2-3.3-5.1-5.8-8.6-7.3s-7.3-2.3-11.6-2.3c-7.3 0-13.2 2.3-17.7 6.9-4.5 4.6-6.8 11.2-6.8 19.7 0 9.2 2.5 15.8 7.6 19.8 5 4.1 10.9 6.1 17.4 6.1 8 0 14.2-2.4 18.6-7.2 2.4-2.5 3.9-5 4.5-7.5h-13.9zm-17.5-24.3c1.8-1.9 4.4-2.8 7.7-2.8 3.1 0 5.6.9 7.7 2.7 2.1 1.8 3.2 4.4 3.4 7.8h-22.3c.5-3.2 1.6-5.8 3.5-7.7zM743.2 19.4h-11.9v-30c0-2.7-.9-9.3-8.8-9.3-5.2 0-9 3.8-9 9.3v30h-11.9v-30c0-2.7-.8-9.3-8.7-9.3-5.3 0-9 3.8-9 9.3v30H672v-29.7c0-12.4 8.2-21.7 20.9-21.7 6.3 0 11.5 2.7 14.8 6.9 3.5-4.3 8.8-6.9 14.8-6.9 13 0 20.7 9 20.7 21.7v29.7zM982.7-47.5s-13.1-1.4-13.1 9.1v14c-1.5-2.3-3.3-4.2-5.7-5.5-2.3-1.3-5-2-8-2-6.5 0-11.7 2.4-15.6 7.3-3.9 4.8-5.8 11.8-5.8 20.3 0 7.3 2 13.3 5.9 18 4 4.7 11.7 6.7 18.6 6.7 24 0 23.7-20.6 23.7-20.6v-47.3zM967.1 5.7c-1.9 2.7-4.7 4.1-8.4 4.1s-6.4-1.4-8.2-4.1c-1.8-2.7-2.7-6.7-2.7-11.3 0-4.2.9-7.8 2.7-10.7 1.8-2.9 4.5-4.3 8.3-4.3 2.5 0 4.7.8 6.5 2.4 3.1 2.6 4.6 7.3 4.6 13.3.1 4.4-.9 7.9-2.8 10.6z"/></g><g><path class="st2" d="M767.2 102.2c0 1.8-.6 3.3-1.9 4.5-1.3 1.3-2.8 1.9-4.6 1.9h-6.5V63.3c0-8.8 3-14.3 7.9-18.1 3.2-2.5 8-4.8 17.1-4.8 6.1 0 13.2 2.4 17.1 7.1 4.3 5.3 6.1 11.2 6.1 18.8 0 7.9-1.9 14.4-5.7 19.3-3.8 4.8-8.8 7.2-14.8 7.2-3.2 0-6-.6-8.4-1.7-2.6-1.3-4.6-3.2-6.1-5.9v17zM789 66.9c0-4.9-1-8.7-2.9-11.3-1.9-2.6-4.7-4-8.2-4-3.4 0-6.1 1.3-8.1 4-1.8 2.4-2.7 6.2-2.7 11.3 0 4.8 1 8.4 2.9 10.8 1.9 2.7 4.7 4 8.2 4 3.3 0 5.9-1.3 7.9-4s2.9-6.3 2.9-10.8M888.6 88.6v-3.2c-2.3 3.5-5.3 5.7-9.1 6.6-3.8.9-7.6.6-11.4-1-3.8-1.5-7-4.3-9.7-8.4-2.7-4.1-4-9.5-4-16.2 0-7.8 1.8-14.1 5.4-19 3.6-4.8 9.3-7.1 17.2-7.3 7.8-.2 12.3 1.6 16.8 4.9 4.8 3.7 7.7 9.3 7.7 18.1v26.7c0 8.5-5.9 24.2-24.5 22.9-11.5-.8-17.9-5.6-21.5-16.3h13.7c1 1.8 2.5 3.1 4.6 4 2.1 1 4.1 1.2 6.2.8 2.1-.4 4-1.7 5.7-3.7 1.7-1.8 2.7-4.9 2.9-8.9m-21.4-21.7c0 8.7 2.5 13.5 7.5 14.5 5 .9 8.7-.2 11.1-3.5 1.1-1.4 1.9-3.6 2.4-6.5.5-3 .5-5.9.1-8.8-.4-2.9-1.5-5.5-3.1-7.8s-4-3.4-7.2-3.4c-4.3 0-7.1 1.6-8.7 4.7-1.4 3.2-2.1 6.8-2.1 10.8M843.2 43.8c-4.2-2.1-9.1-3.2-14.5-3.2-8.4 0-14.3 2.2-17.8 6.6-2.2 2.8-3.4 6.4-3.7 10.7h12.5c.3-1.9.9-3.4 1.8-4.6 1.3-1.5 3.5-2.3 6.6-2.3 2.8 0 4.9.4 6.3 1.2 1.4.8 2.1 2.2 2.1 4.2 0 1.7-.9 2.9-2.8 3.7-1 .5-2.8.8-5.2 1.1l-4.4.5c-5 .6-8.9 1.7-11.5 3.2-4.8 2.7-7.1 7.2-7.1 13.3 0 4.7 1.5 8.3 4.4 10.9 2.9 2.6 6.7 3.6 11.2 3.9 28.3 1.3 28-14.9 28.3-18.3V56.1c.2-6-1.9-10.1-6.2-12.3m-6.6 28.3c-.1 4.3-1.3 7.3-3.7 9-2.4 1.6-5 2.5-7.8 2.5-1.8 0-3.3-.5-4.6-1.5-1.3-1-1.9-2.6-1.9-4.8 0-2.5 1-4.3 3.1-5.5 1.2-.7 3.2-1.3 6-1.8l3-.6c1.5-.3 2.6-.6 3.5-.9.9-.3 1.7-.7 2.5-1.2v4.8zM950.7 47.9c-4.2-5.2-10.5-7.9-19-7.9s-14.8 2.6-19 7.9c-4.2 5.2-6.3 11.4-6.3 18.6 0 7.3 2.1 13.5 6.3 18.6 4.2 5.1 10.5 7.7 19 7.7s14.9-2.6 19-7.7c4.2-5.2 6.3-11.4 6.3-18.6 0-7.1-2.1-13.3-6.3-18.6M940.4 78c-2 2.7-4.9 4-8.7 4-3.8 0-6.7-1.3-8.7-4-2.1-2.7-3.1-6.5-3.1-11.5s1-8.8 3.1-11.5c2-2.7 5-4 8.7-4 3.8 0 6.7 1.3 8.7 4 2 2.7 3 6.5 3 11.5s-1 8.8-3 11.5"/></g></svg> 
