<svg xmlns="http://www.w3.org/2000/svg" viewBox="-104 45 750 471"><style>.st0{fill:url(#rectangle_1_);} .st1{fill:#F1B800;} .st2{fill:#003772;}</style><g id="diners"><linearGradient id="rectangle_1_" gradientUnits="userSpaceOnUse" x1="271" y1="56.602" x2="271" y2="493.08"><stop offset="0" stop-color="#F2F2F2"/><stop offset="1" stop-color="#E6EAED"/></linearGradient><path id="rectangle" class="st0" d="M-64 45h670c22.1 0 40 17.9 40 40v391c0 22.1-17.9 40-40 40H-64c-22.1 0-40-17.9-40-40V85c0-22.1 17.9-40 40-40z"/></g><path class="st1" d="M49.6 172.7v55.6l-30.1-48.1 15.8 53.5-42.6-39.3L23.3 242-29 214.5l42.6 39.2-58.1-14.6 52.2 27.6-60.2-.4 58.1 14.6-58.1 13.7H7.8l-52.2 27.6 58.1-14.6-42.7 39.3 52.2-27.5L-7.3 367l42.6-39.2-15.8 53.5 30.1-48.1v55.2l15-51.8c-4.1-19-6.3-37.5-6.3-55.6 0-18.4 2.1-37.1 6.3-56l-15-52.3z"/><path class="st2" d="M84.7 176.5l-2.9 7.1c-5.8 14.5-10.2 28.2-13 41.4-3.9 17.2-5.8 35.9-5.8 56 0 19.5 2 38 5.8 55.6 2.8 13.1 7.1 26.9 13 41.4l2.9 7.1c6.1 13.7 12.9 26.2 20.5 37.6-8.6-18.4-15.5-36.8-20.5-55.2-7.8-29-11.7-57.8-11.7-86.5 0-29.2 3.9-58.2 11.7-86.9 5-18.4 11.8-36.9 20.5-55.6-7 10.8-13.8 23.5-20.5 38zM156.1 223.7h-14.6v113.7h14.6V266c0-11.7 2.8-20.6 8.4-26.8 4.7-5 10.8-7.5 18.4-7.5 15.3 0 23 8.8 23 26.3v79.4h14.6v-80.2c0-10.3-1.8-18.3-5.4-23.9-5.3-8.1-14.8-12.1-28.4-12.1-11.7 0-21.7 5.3-30.1 15.9h-.4v-13.4h-.1zM253.9 273c-1.7.5-3.3 1.1-5 1.7-13.1 5.5-19.7 16-19.7 31.3 0 10 2.8 18.1 8.4 24.2 3.1 3.1 6.8 5.4 11.3 7.1 4.1 1.4 8.9 2.1 14.1 2.1 15.6 0 27.3-5.4 35.1-16.3h.5v14.2H314l-1.7-86c0-12.6-4.9-21.2-14.6-25.9-5.6-2.8-13.5-4.2-23.8-4.2-10 0-18.4 1.8-25 5.4-1.2.5-2.1 1.1-2.9 1.7-8.4 5-12.9 12.8-13.4 23.4h15.8c0-1.7.1-3.2.5-4.6.8-4.4 3.1-7.9 6.7-10.4 4.1-3.3 9.9-5 17.1-5 9.5 0 16 2.5 19.6 7.5 3.6 4.2 5.4 10.7 5.4 19.7v9.6l-43.8 4.5zm43.8 26.7c0 7.8-3.1 14.5-9.2 20.1-6.1 5.8-13.3 8.8-21.7 8.8-7.3 0-12.9-2.2-16.7-6.7-.5-.6-1-1.2-1.2-1.7-2.8-3.9-4.2-8.9-4.2-15 0-5.6 1.4-10.2 4.2-13.8 3.1-4.4 7.9-7.5 14.6-9.2l34.2-2.9v20.4zM353.7 199h-14.6v24.6H319v10.5h20.1v81.4c0 7.3 1.8 12.7 5.4 16.3 3.9 3.6 10.7 5.4 20.5 5.4l13.8-.4v-11.7l-11.7.8c-5.6 0-9.2-1.2-10.9-3.7-1.7-2.5-2.5-7.5-2.5-15v-73.1h25.1v-10.5h-25.1V199zM407.2 223.3h-16.3v114h16.3v-114zM390.9 199v16.7h16.3V199h-16.3zM433.5 223.7h-16.3l37.2 113.6h16.7l36.8-113.6h-13.8l-30.5 96.1h-.4l-29.7-96.1zM573.1 239.1c3.3 4.2 5 10.7 5 19.7v9.6l-43.9 4.6c-16.5 4.7-24.7 15.7-24.7 33 0 10 2.9 18.1 8.8 24.2 5.9 6.2 14.4 9.3 25.5 9.3 15.6 0 27.1-5.4 34.7-16.3h.8v14.2h15c-.8-8.9-1.2-18.6-1.2-28.8v-57.2c0-20.1-13-30.1-38.9-30.1-11.6 0-21.1 2.4-28.4 7.1-8.1 5-12.4 12.8-13 23.4h15.9c0-6.7 2.4-11.7 7.1-15 4.1-3.3 10-5 17.5-5 9.3-.2 15.9 2.3 19.8 7.3zm-25.5 89.5c-7.2 0-12.9-2.2-17.1-6.7-3.6-4.2-5.4-9.8-5.4-16.7 0-12 6.3-19.7 18.8-23l34.3-2.9v20.5c0 7.8-2.9 14.5-8.8 20.1-6.3 5.7-13.5 8.7-21.8 8.7z"/><path class="st1" d="M417.2 370.3h5.5l2.5-14.6 14.6 17.1 4.2-25.9h-4.7l-2.9 14.6-14.6-17.1-4.6 25.9zM491.6 353.6c1.7-1.6 3.6-2.4 5.8-2.4 2.5 0 4.3.8 5.4 2.4l1.7 1.7.8-5.8v-.5l-7.5-2.1c-3.6 0-6.8 1.1-9.6 3.3-3.1 2.2-4.8 5-5 8.4l-.4 1.7c0 2.5 1 4.7 2.9 6.7 2 2.2 4.8 3.3 8.4 3.3l8-2.1.4-.4 1.2-6.3-2.5 2.1-6.7 2.5-5-2.1c-1.4-1.4-1.9-3.2-1.6-5.4l3.7-5zM458.2 364.1h7.9l1.7 6.3h5.4l-8-25.9-16.2 25.8h5.4l3.8-6.2zm5.4-8.8l1.2 4.6h-3.7l2.5-4.6zM555.9 350.3c-1.7-2.2-4.5-3.3-8.4-3.3-3.6 0-6.8 1.1-9.6 3.3-3.1 2.2-4.9 4.9-5.4 8-.5 3.3.3 6.3 2.5 8.8 2.2 2.2 5.2 3.3 8.8 3.3l9.6-2.9 5.4-8.4c.6-3.4-.4-6.3-2.9-8.8zm-3.7 2.9c1.7 1.4 2.2 3.1 1.6 5l-3.3 5.4c-1.7 1.7-3.7 2.5-6.3 2.5-2.2 0-3.9-.7-5-2.1-1.4-1.4-1.9-3.2-1.6-5.4l3.3-5c2-1.6 4-2.4 6.3-2.4 2.2-.1 3.8.6 5 2zM519.2 346.9l-4.2 23.4h5l3.8-23.4h-4.6zM593.9 346.9h-5l-2.5 14.6-15-17.1-4.2 25.9h5l2.5-14.6 14.6 17.1 4.6-25.9z"/></svg>