<svg xmlns="http://www.w3.org/2000/svg" xmlns:xlink="http://www.w3.org/1999/xlink" viewBox="-104 45 750 471"><style>.st0{clip-path:url(#rectangle_1_);} .st1{fill:#F1DF75;} .st2{fill:#426FAC;} .st3{fill:url(#SVGID_1_);} .st4{fill:url(#SVGID_2_);} .st5{fill:url(#SVGID_3_);} .st6{fill:url(#SVGID_4_);} .st7{fill:url(#SVGID_5_);} .st8{fill:url(#SVGID_6_);} .st9{fill:url(#SVGID_7_);} .st10{fill:url(#SVGID_8_);} .st11{fill:url(#SVGID_9_);} .st12{fill:url(#SVGID_10_);} .st13{fill:url(#SVGID_11_);} .st14{fill:url(#SVGID_12_);} .st15{fill:url(#SVGID_13_);} .st16{fill:url(#SVGID_14_);}</style><defs><path id="rectangle" d="M-64 45h670c22.1 0 40 17.9 40 40v391c0 22.1-17.9 40-40 40H-64c-22.1 0-40-17.9-40-40V85c0-22.1 17.9-40 40-40z"/></defs><clipPath id="rectangle_1_"><use xlink:href="#rectangle" overflow="visible"/></clipPath><g class="st0"><path class="st1" d="M659.1 75c0-16.6-13.4-30-30.1-30l-718 .1c-16.6 0-30 13.5-30 30V280l778.1-.1V75z"/><path class="st2" d="M659.2 485c0 16.6-13.4 30-30 30l-718 .1c-16.6 0-30-13.4-30-30V280.2l778.1-.1-.1 204.9z"/><linearGradient id="SVGID_1_" gradientUnits="userSpaceOnUse" x1="-36.552" y1="-4.24" x2="411.154" y2="382.666" gradientTransform="rotate(5.682 842.338 557.932)"><stop offset="0" stop-color="#F2DD50"/><stop offset=".01" stop-color="#F2DD50"/><stop offset=".372" stop-color="#F0D859"/><stop offset="1" stop-color="#F0D75B"/></linearGradient><path class="st3" d="M659.1 75c0-16.6-13.4-30-30.1-30l-718 .1c-16.6 0-30 13.5-30 30V280l778.1-.1V75z"/><linearGradient id="SVGID_2_" gradientUnits="userSpaceOnUse" x1="-87.092" y1="648.575" x2="631.457" y2="239.554" gradientTransform="rotate(5.682 860.105 533.536)"><stop offset="0" stop-color="#004180"/><stop offset=".327" stop-color="#004683"/><stop offset=".701" stop-color="#00538D"/><stop offset="1" stop-color="#006498"/></linearGradient><path class="st4" d="M659.2 485V280.1H552.5L532.2 196h-38.6l-47.4 84.2h-10.5l9.6-57.6 19.1.8L469 196h-73.3l-4.6 27.4 19.3-.8-9.6 57.6h-27.9l3.8-23h-30.4l1.4-8.3h26.9l3.6-21.9h-26.8l1.3-8h29.4l3.8-23h-64.6l-14 84.3h-38.7c14.2-3.5 24.9-13.9 27.2-27.5l9.5-56.8h-34.1l-8.2 50c-.6 3.6-2 9.2-7.6 9.2-5.5 0-10-5.4-10-5.4l-14 22.6c4.4 3.5 10.3 6.3 16.6 7.8h-15.2l-16.3-27.4c-1.5-2.5-3.4-3.8-5-5l.1-.7c13.6-3.8 20.1-9.2 22.2-21.9 3.5-21.2-13.5-29.3-35.1-29.3h-42.1l-14 84.3h34.1l4.5-27.1h.6l10.8 27.1h23.1l-334.5.1v204.9c0 16.6 13.4 30 30 30l718-.1c16.5 0 30-13.5 30-30.1zM186.8 233.3h-2.4l2.4-14.3h2.7c6 0 11.1.8 10 7.3-1.1 6.2-7 7-12.7 7zm321.1-9.3h1.3c.1 3.6.1 7.3.5 10.9l1.6 14.9h-14l10.6-25.8zm-20.2 45.8h26.4l1.4 10.4h-32.3l4.5-10.4z"/><linearGradient id="SVGID_3_" gradientUnits="userSpaceOnUse" x1="-214.14" y1="428.141" x2="504.396" y2="19.128" gradientTransform="rotate(5.682 842.338 557.932)"><stop offset="0" stop-color="#004180"/><stop offset=".327" stop-color="#004683"/><stop offset=".701" stop-color="#00538D"/><stop offset="1" stop-color="#006498"/></linearGradient><path class="st5" d="M-17.2 280.2h34.9l9.6-57.7 19.1.8 4.5-27.4h-73.3l-4.6 27.4 19.4-.8z"/><linearGradient id="SVGID_4_" gradientUnits="userSpaceOnUse" x1="-190.063" y1="467.667" x2="528.462" y2="58.66" gradientTransform="rotate(5.682 860.105 533.536)"><stop offset="0" stop-color="#004180"/><stop offset=".327" stop-color="#004683"/><stop offset=".701" stop-color="#00538D"/><stop offset="1" stop-color="#006498"/></linearGradient><path class="st6" d="M65.1 280.2l4.6-10.5h26.4l1.4 10.5h36.9l-20.2-84.3H75.6l-47.4 84.3h36.9zM89.8 224h1.3c0 3.6.1 7.3.5 10.8l1.6 14.9h-14L89.8 224z"/><linearGradient id="SVGID_5_" gradientUnits="userSpaceOnUse" x1="-102.537" y1="621.328" x2="615.963" y2="212.335" gradientTransform="rotate(5.682 860.105 533.536)"><stop offset="0" stop-color="#004180"/><stop offset=".327" stop-color="#004683"/><stop offset=".701" stop-color="#00538D"/><stop offset="1" stop-color="#006498"/></linearGradient><path class="st7" d="M576.2 243.6c11.9 0 21.5-9.6 21.5-21.5s-9.6-21.5-21.5-21.5-21.5 9.6-21.5 21.5 9.6 21.5 21.5 21.5zm0-37.6c8.6 0 16.1 7.4 16.1 16.1 0 8.6-7.4 16.1-16.1 16.1-8.6 0-16.1-7.5-16.1-16.1 0-8.6 7.5-16.1 16.1-16.1z"/><linearGradient id="SVGID_6_" gradientUnits="userSpaceOnUse" x1="-102.779" y1="620.889" x2="615.712" y2="211.901" gradientTransform="rotate(5.682 860.105 533.536)"><stop offset="0" stop-color="#004180"/><stop offset=".327" stop-color="#004683"/><stop offset=".701" stop-color="#00538D"/><stop offset="1" stop-color="#006498"/></linearGradient><path class="st8" d="M572.4 232.1v-8.9h2.8l4.3 8.9h5.8l-4.7-8.9c3.3-.3 5.3-1.8 5.3-5.8 0-2.2-.6-4.3-2.5-5.5-1.6-1-3.9-.9-5.8-.9h-10.3v21.1h5.1zm4.2-17.5c1.7 0 4.3 0 4.3 2.2s-1.4 2.6-3.4 2.6h-5.1v-4.8h4.2z"/><g><linearGradient id="SVGID_7_" gradientUnits="userSpaceOnUse" x1="-238.405" y1="233.839" x2="209.34" y2="620.778" gradientTransform="rotate(5.682 860.105 533.536)"><stop offset="0" stop-color="#F2DD50"/><stop offset=".01" stop-color="#F2DD50"/><stop offset=".372" stop-color="#F0D859"/><stop offset="1" stop-color="#F0D75B"/></linearGradient><path class="st9" d="M-24.7 351.9l1.3 1.2c4.7 4 10.5 7.2 17.2 7.2 2.9 0 7.6-1.2 8.1-4.7.5-3.6-3.3-3.9-5.8-4.4l-5.7-1c-11.1-2-19.7-8.6-17.9-21 2.8-18.7 21.7-29.2 39.2-29.2 9.2 0 17.3 2.2 24.5 6.9L25.3 327c-4.5-3.4-9.8-6-16.1-6-2.6 0-6.4.9-6.9 4.2-.4 2.9 3.1 3.3 5.3 3.9l6.4 1.5c12 2.7 20 9.2 18 22.6-2.8 18.9-21.6 28.2-39 28.2-10.1 0-21.5-2.7-29.8-7.2l12.1-22.3z"/><linearGradient id="SVGID_8_" gradientUnits="userSpaceOnUse" x1="-200.323" y1="189.819" x2="247.377" y2="576.72" gradientTransform="rotate(5.682 860.105 533.536)"><stop offset="0" stop-color="#F2DD50"/><stop offset=".01" stop-color="#F2DD50"/><stop offset=".372" stop-color="#F0D859"/><stop offset="1" stop-color="#F0D75B"/></linearGradient><path class="st10" d="M48.7 301.1h28.1l-3.9 26.6h17.9l3.9-26.6h28.1l-11.6 79H83.1l4-27.5H69.2l-4 27.5H37.1l11.6-79z"/><linearGradient id="SVGID_9_" gradientUnits="userSpaceOnUse" x1="-156.909" y1="139.551" x2="290.817" y2="526.474" gradientTransform="rotate(5.682 860.105 533.536)"><stop offset="0" stop-color="#F2DD50"/><stop offset=".01" stop-color="#F2DD50"/><stop offset=".372" stop-color="#F0D859"/><stop offset="1" stop-color="#F0D75B"/></linearGradient><path class="st11" d="M173.9 325.9c9.3 0 14 7 12.8 15.4-1.3 9-8.4 15.2-17.3 15.2-8.8 0-14.1-6.2-12.8-15.2 1.2-8.4 8-15.4 17.3-15.4zm3.8-26c-24.4 0-46.8 16.2-50.5 41-3.7 25.4 14 40.6 38.5 40.6s46.7-15.2 50.4-40.6c3.7-24.9-14-41-38.4-41z"/><linearGradient id="SVGID_10_" gradientUnits="userSpaceOnUse" x1="-118.316" y1="94.911" x2="329.398" y2="481.824" gradientTransform="rotate(5.682 860.105 533.536)"><stop offset="0" stop-color="#F2DD50"/><stop offset=".01" stop-color="#F2DD50"/><stop offset=".372" stop-color="#F0D859"/><stop offset="1" stop-color="#F0D75B"/></linearGradient><path class="st12" d="M257.3 322.7h2.8c4.8 0 10.7.3 9.8 6.5-.9 6.4-6.6 7.2-11.7 7.3h-2.9l2-13.8zm-36.6 57.5h28.1l3.5-23.8h14.9c16.3 0 28-10.1 30.4-26.2 2.9-19.6-9.6-29-28.4-29h-37l-11.5 79z"/><linearGradient id="SVGID_11_" gradientUnits="userSpaceOnUse" x1="-81.519" y1="52.27" x2="366.225" y2="439.209" gradientTransform="rotate(5.682 860.105 533.536)"><stop offset="0" stop-color="#F2DD50"/><stop offset=".01" stop-color="#F2DD50"/><stop offset=".372" stop-color="#F0D859"/><stop offset="1" stop-color="#F0D75B"/></linearGradient><path class="st13" d="M334.9 322.7h2.8c4.8 0 10.7.3 9.8 6.5-.9 6.4-6.6 7.3-11.7 7.3h-2.9l2-13.8zm-36.6 57.4h28.1l3.5-23.8h14.9c16.3 0 28-10.1 30.4-26.2 2.9-19.6-9.6-29-28.3-29h-37l-11.6 79z"/><linearGradient id="SVGID_12_" gradientUnits="userSpaceOnUse" x1="-50.154" y1="15.927" x2="397.613" y2="402.885" gradientTransform="rotate(5.682 860.105 533.536)"><stop offset="0" stop-color="#F2DD50"/><stop offset=".01" stop-color="#F2DD50"/><stop offset=".372" stop-color="#F0D859"/><stop offset="1" stop-color="#F0D75B"/></linearGradient><path class="st14" d="M387.8 301.1H417l-11.6 79.1h-29.2l11.6-79.1z"/><linearGradient id="SVGID_13_" gradientUnits="userSpaceOnUse" x1="-17.839" y1="-21.391" x2="429.887" y2="365.533" gradientTransform="rotate(5.682 860.105 533.536)"><stop offset="0" stop-color="#F2DD50"/><stop offset=".01" stop-color="#F2DD50"/><stop offset=".372" stop-color="#F0D859"/><stop offset="1" stop-color="#F0D75B"/></linearGradient><path class="st15" d="M430.1 301.1h28l19.8 43.8h.9c-.2-6.6-.5-13.4.5-20.1l3.5-23.7h27.9l-11.6 79.1h-27.9l-19.6-41.5h-.9c.2 5.5.3 10.6-.5 15.8l-3.8 25.7h-27.9l11.6-79.1z"/><linearGradient id="SVGID_14_" gradientUnits="userSpaceOnUse" x1="27.013" y1="-73.253" x2="474.717" y2="313.653" gradientTransform="rotate(5.682 860.105 533.536)"><stop offset="0" stop-color="#F2DD50"/><stop offset=".01" stop-color="#F2DD50"/><stop offset=".372" stop-color="#F0D859"/><stop offset="1" stop-color="#F0D75B"/></linearGradient><path class="st16" d="M603.6 333.5c-2.1 12.9-3.7 23.7-14.6 33.7-9.9 9.1-23.7 14.1-36.2 14.1-24.5 0-42.2-14.9-38.4-40.3 3.8-25.8 25.4-41.3 50.6-41.3 13.9 0 32.1 6.8 36.4 20.3l-28.7 9.9c-1.6-4-5.5-6.1-10.2-6.1-10.5 0-17.5 8.8-18.9 18.4-1.3 8.7 3.1 16.9 12.5 16.9 4.6 0 10.8-2.1 12.9-6.9h-13.2l2.7-18.7h45.1z"/></g></g></svg>