<svg xmlns="http://www.w3.org/2000/svg" xmlns:xlink="http://www.w3.org/1999/xlink" viewBox="-104 45 750 471"><style>.st0{clip-path:url(#rectangle_1_);} .st1{fill:#A71B20;} .st2{fill:#D25A2A;} .st3{fill:#FFFFFF;}</style><defs><path id="rectangle" d="M-64 45h670c22.1 0 40 17.9 40 40v391c0 22.1-17.9 40-40 40H-64c-22.1 0-40-17.9-40-40V85c0-22.1 17.9-40 40-40z"/></defs><clipPath id="rectangle_1_"><use xlink:href="#rectangle" overflow="visible"/></clipPath><g class="st0"><path class="st1" d="M-110.1-42.2v493.9s-5.4 59.9 74.3 78.1c79.7 18.3 628.5 146.3 628.5 146.3s84.4 19.7 84.4-88v-784.9s-6.6-96.4-117-68.2c-134.8 34.4-596 144.7-596 144.7s-74.2 11.6-74.2 78.1z"/><path class="st2" d="M-122.4-43.4v493.9s-45.4 207.9 34.3 226.2C-8.4 695 580.4 675 580.4 675s84.4 19.7 84.4-88.1V-198s-6.5-96.5-117-68.2C413.1-231.8-48.1-121.6-48.1-121.6s-74.3 11.7-74.3 78.2z"/><path class="st3" d="M-56.7 200.1h42l56.6 107-.2-107h29.9v146.8H32.1L-24 237.1h-.4v109.8l-16.9.5-15.4-147.3zM183.6 238.6l29.5.6 2.6 14.2s6.2-17.3 23-17.3c2.7 0 5.7 0 8.6.8v28.4c-2.5-1.5-7.6-2.3-12.6-2.3-22.9 0-22.9 28.6-22.9 44.2V347h-28.2V238.6zM256.9 244.3c10.9-5 25.6-8.2 37.7-8.2 33 0 46.7 13.7 46.7 45.6v13.9c0 10.9.2 19.1.4 27.1.2 8.2.6 15.8 1.3 24.2h-8.3c-12.9 0-17.6-12.8-17.8-16.2h-.4c-6.5 12-20.6 18.7-33.5 18.7-19.1 0-37.8-11.6-37.8-32.2 0-16.2 7.8-25.6 18.5-30.9 10.7-5.2 24.6-6.3 36.4-6.3h15.6c0-17.5-7.8-23.4-24.4-23.4-12 0-24 4.6-33.4 11.8l-1-24.1zm33 84.5c8.6 0 15.4-3.8 19.8-9.7 4.7-6.1 5.9-13.9 5.9-22.3h-12.2c-12.6 0-31.4 2.1-31.4 18.7 0 9.3 7.8 13.3 17.9 13.3zM345.6 238.6H383v14.7h.4c8.9-12.4 20.8-17.2 35.6-17.2 25.7 0 36.8 18.1 36.8 42.5V347h-28.2v-57.8c0-13.2-.2-31.1-18.3-31.1-20.4 0-24.8 22.1-24.8 36l.3 52.7-13.7.2-25.5-108.4zM455.5 384.1c15.2-.9 17.3-3.8 17.3-20.7V237.6h25.8l2.5 3.1v113.6c0 15.4-4.4 38.8-32.7 38.8-4.6 0-10.3-.6-13.9-1.7l1-7.3zM172.8 322.7c-.2-8-.4-16.2-.4-27.1v-13.9c0-32-13.7-45.6-46.7-45.6-12 0-26.7 3.2-37.6 8.2l.9 24.2c9.5-7.1 21.4-11.8 33.4-11.8 16.6 0 24.4 5.9 24.4 23.4h-15.6c-11.8 0-25.6 1-36.4 6.3-5.3 2.6-9.9 6.2-13.1 11.2l6.6 43.7c7 5.4 16.4 8.2 25.9 8.2 12.8 0 26.9-6.7 33.4-18.7h.4c.2 3.4 3.5 16.2 17.1 16.2h9c-.7-8.5-1.1-16.1-1.3-24.3zm-32-3.6c-4.4 5.9-11.1 9.7-19.8 9.7-10.1 0-17.9-4-17.9-13.2 0-16.6 18.7-18.7 31.3-18.7h12.2c.1 8.4-1.1 16.2-5.8 22.2zM605.7 322.7c-.2-8-.4-16.2-.4-27.1v-13.9c0-32-13.7-45.6-46.7-45.6-12 0-26.7 3.2-37.6 8.2l.8 24.2c9.5-7.1 21.5-11.8 33.5-11.8 16.6 0 24.4 5.9 24.4 23.4h-15.6c-11.8 0-25.7 1-36.4 6.3-4.7 2.3-8.7 5.4-11.8 9.5l16.8 51.4c4.6 1.5 9.4 2.3 14.4 2.3 12.8 0 26.9-6.7 33.4-18.7h.4c.2 3.4 2.9 11.7 17.8 16.2h8.3c-.7-8.6-1.1-16.2-1.3-24.4zm-32-3.6c-4.4 5.9-11.2 9.7-19.8 9.7-10.1 0-17.9-4-17.9-13.2 0-16.6 18.7-18.7 31.3-18.7h12.2c.1 8.4-1.1 16.2-5.8 22.2z"/><path class="st3" d="M530.8-339.9l-5 1.3c23.2 207 70 417.6 137.9 602.5v-15.5C598.2 66.5 553.5-137.3 530.8-339.9zm-133.4 32.8C420.5 9.2 501.5 321 629 590.9c1.4-.9 2.8-1.9 4.2-3C506.1 318.6 425.4 7.4 402.5-308.3l-5.1 1.2zm-413.6 100l-5.5 1.3c-23 110.5-36.4 220.7-37.7 330.5-.1 5.8-.1 11.5-.1 17.2 0 106.4 21 283.9 43.9 388.9l5.5 1.3c-23.1-105.4-44.3-283.3-44.3-390.2 0-5.7 0-11.4.1-17.2C-53 14.5-39.5-96.1-16.2-207.1zm79.6 231c0-83.7 6-170.2 16.7-254.4l-5.3 1.3C64.3-145.3 58.3-59.4 58.3 23.9v11.2c1 154.4 32.5 380.1 73.7 529.5l5.6 1.3C96.2 416.1 64.5 190 63.5 35.2c-.1-3.8-.1-7.5-.1-11.3zM285.3-280l-5.1 1.2c.2 20.6.6 41.2 1.3 61.7 9.5 276.4 64.8 539.5 166.2 784.6l6.1 1.4c-102-245.5-157.7-509-167.2-786.1-.8-20.9-1.2-41.9-1.3-62.8zM180-144.7c0-36.8.9-73.6 2.8-110.5l-5.1 1.2c-1.8 36.5-2.7 72.9-2.7 109.3 0 16.8.2 33.6.5 50.4C180 120.3 217.1 330.1 287 529.9l5.8 1.3C222.5 331.1 185.1 120.7 180.5-94.4c-.3-16.7-.5-33.5-.5-50.3z"/></g></svg> 