<svg xmlns="http://www.w3.org/2000/svg" width="750" height="471"><path fill="#0E4595" d="M40 0h670c22.1 0 40 17.9 40 40v391c0 22.1-17.9 40-40 40H40c-22.1 0-40-17.9-40-40V40C0 17.9 17.9 0 40 0z"/><path fill="#FFF" d="M247.5 138.1L195 270.7 173.8 158c-2.5-12.6-12.3-19.9-23.2-19.9H64.9l-1.2 5.6c17.6 3.8 37.6 10 49.7 16.6 7.4 4 9.5 7.5 12 17.1l40.2 155.4h53.2l81.6-194.7h-52.9zm74.5 0l-41.7 194.7h50.4l41.7-194.7H322zm288.9 52.7l15.3 73.1h-41.8l26.5-73.1zm-7.4-52.7c-9.7 0-17.8 5.6-21.4 14.3l-75.6 180.5h52.9l10.5-29.1h64.6l6.1 29.1h46.6l-40.7-194.7h-43zm-217.4 60.8c-.3 28.1 25 43.7 44.1 53 19.6 9.5 26.2 15.7 26.1 24.2-.1 13.1-15.7 18.8-30.2 19.1-25.3.4-40-6.8-51.7-12.3l-9.1 42.7c11.8 5.4 33.5 10.1 56 10.3 52.9 0 87.5-26.1 87.7-66.6.2-51.4-71.1-54.2-70.6-77.2.2-7 6.8-14.4 21.4-16.3 7.2-.9 27.1-1.7 49.7 8.7l8.9-41.3c-12.1-4.4-27.7-8.6-47.1-8.6-49.9 0-84.9 26.4-85.2 64.3"/></svg>