<svg xmlns="http://www.w3.org/2000/svg" baseProfile="tiny" viewBox="0 0 750 471"><path fill="#0E4595" d="M40 0h670c22.1 0 40 17.9 40 40v391c0 22.1-17.9 40-40 40H40c-22.1 0-40-17.9-40-40V40C0 17.9 17.9 0 40 0z"/><path fill="#FFF" d="M401.4 425.1c0 5.1-1.1 9.8-3.4 14-2.2 4.2-5.2 7.4-8.9 9.7-2.6 1.6-5.5 2.7-8.6 3.5-3.2.7-7.4 1.1-12.6 1.1h-14.3v-56.6h14.1c5.5 0 9.9.4 13.2 1.2s6 1.9 8.3 3.3c3.9 2.4 6.9 5.6 9 9.6s3.2 8.7 3.2 14.2zm-7.9-.1c0-4.4-.8-8.2-2.3-11.2s-3.9-5.4-6.9-7.2c-2.2-1.3-4.6-2.1-7.1-2.6s-5.5-.7-9-.7h-7.1V447h7.1c3.6 0 6.8-.3 9.5-.8s5.2-1.5 7.4-3c2.8-1.8 4.9-4.2 6.3-7.1 1.4-3.1 2.1-6.7 2.1-11.1zm55 7.8h-31.3c0 2.6.4 4.9 1.2 6.8.8 1.9 1.9 3.5 3.2 4.8 1.3 1.2 2.9 2.1 4.7 2.7 1.8.6 3.8.9 6 .9 2.9 0 5.8-.6 8.7-1.7 2.9-1.2 5-2.3 6.3-3.4h.4v7.8c-2.4 1-4.9 1.9-7.4 2.5s-5.1 1-7.9 1c-7 0-12.5-1.9-16.5-5.7s-5.9-9.2-5.9-16.2c0-6.9 1.9-12.4 5.7-16.5 3.8-4.1 8.8-6.1 15-6.1 5.7 0 10.1 1.7 13.2 5s4.7 8.1 4.7 14.2v3.9h-.1zm-7-5.4c0-3.7-1-6.6-2.8-8.7-1.9-2.1-4.7-3.1-8.5-3.1s-6.9 1.1-9.1 3.4-3.6 5.1-3.9 8.4h24.3zm.9-37.8L432 403.8h-5.7l6.8-14.2h9.3zm54.3 42.2c0 3.5-.5 6.7-1.5 9.6-1 2.8-2.3 5.2-4 7.1-1.8 2-3.8 3.5-5.9 4.5-2.2 1-4.5 1.5-7.1 1.5-2.4 0-4.5-.3-6.3-.9s-3.6-1.3-5.3-2.3l-.5 2h-6.7v-59.1h7.1v21.1c2-1.6 4.1-3 6.4-4 2.3-1.1 4.8-1.6 7.6-1.6 5 0 9 1.9 11.9 5.8 2.8 3.8 4.3 9.3 4.3 16.3zm-7.4.2c0-5.1-.8-8.9-2.5-11.5s-4.4-3.9-8.1-3.9c-2.1 0-4.2.4-6.3 1.3s-4.1 2.1-5.9 3.5v24.3c2 .9 3.8 1.5 5.2 1.9 1.5.4 3.1.5 5 .5 4 0 7-1.3 9.3-3.9 2.2-2.6 3.3-6.7 3.3-12.2zm26.2-28.2h-8.1v-7.4h8.1v7.4zm-.5 49.5h-7.1v-42.4h7.1v42.4zm36.2-.4c-1.3.4-2.8.6-4.4.9-1.6.2-3 .3-4.2.3-4.3 0-7.6-1.2-9.9-3.5-2.3-2.3-3.4-6.1-3.4-11.2v-22.6h-4.8v-6h4.8v-12.2h7.1v12.2h14.7v6h-14.7v19.3c0 2.2.1 4 .2 5.2s.5 2.4 1.1 3.5c.6 1 1.3 1.8 2.3 2.2 1 .5 2.5.7 4.5.7 1.2 0 2.4-.2 3.6-.5 1.3-.3 2.2-.6 2.7-.9h.4v6.6zm44.8-20.8c0 6.9-1.8 12.4-5.3 16.4s-8.3 6-14.2 6c-6 0-10.8-2-14.3-6s-5.3-9.5-5.3-16.4 1.8-12.4 5.3-16.4 8.3-6 14.3-6 10.7 2 14.2 6 5.3 9.5 5.3 16.4zm-7.4 0c0-5.5-1.1-9.6-3.2-12.3-2.2-2.7-5.1-4-9-4s-6.9 1.3-9 4-3.2 6.8-3.2 12.3c0 5.3 1.1 9.4 3.2 12.1 2.2 2.7 5.2 4.1 9 4.1s6.8-1.4 8.9-4.1c2.2-2.7 3.3-6.7 3.3-12.1zm-341.1-313L195 251.7 173.8 139c-2.5-12.6-12.3-19.9-23.2-19.9H64.9l-1.2 5.6c17.6 3.8 37.6 10 49.7 16.6 7.4 4 9.5 7.5 12 17.1l40.2 155.4h53.2l81.6-194.7h-52.9zm74.5 0l-41.7 194.7h50.4l41.7-194.7H322zm288.9 52.7l15.3 73.1h-41.8l26.5-73.1zm-7.4-52.7c-9.7 0-17.8 5.6-21.4 14.3l-75.6 180.5h52.9l10.5-29.1h64.6l6.1 29.1h46.6l-40.7-194.7h-43zm-217.4 60.8c-.3 28.1 25 43.7 44.1 53 19.6 9.5 26.2 15.7 26.1 24.2-.1 13.1-15.7 18.8-30.2 19.1-25.3.4-40-6.8-51.7-12.3l-9.1 42.7c11.8 5.4 33.5 10.1 56 10.3 52.9 0 87.5-26.1 87.7-66.6.2-51.4-71.1-54.2-70.6-77.2.2-7 6.8-14.4 21.4-16.3 7.2-.9 27.1-1.7 49.7 8.7l8.9-41.3c-12.1-4.4-27.7-8.6-47.1-8.6-49.9 0-84.9 26.4-85.2 64.3"/></svg>